<svg width="223" height="79" viewBox="0 0 223 79" fill="none" xmlns="http://www.w3.org/2000/svg">
<g clip-path="url(#clip0_351_24928)">
<path d="M215.381 14.9785C217.055 14.7586 218.627 14.9799 219.977 15.9355V15.9365C220.055 15.9928 220.133 16.0504 220.209 16.1104V16.1113C220.286 16.1729 220.362 16.2362 220.438 16.3018C220.51 16.3658 220.581 16.4316 220.65 16.499L220.653 16.502C220.723 16.5686 220.791 16.6365 220.855 16.7061L220.858 16.71C220.924 16.7798 220.988 16.851 221.049 16.9238L221.052 16.9277C221.115 17.0021 221.176 17.078 221.235 17.1553L221.412 17.3965C221.466 17.4753 221.518 17.5554 221.568 17.6367H221.569C221.621 17.7196 221.67 17.8041 221.717 17.8896L221.72 17.8945C221.767 17.9769 221.811 18.0603 221.853 18.1445V18.1455L221.977 18.418C222.015 18.5067 222.052 18.5963 222.085 18.6865L222.087 18.6914C222.122 18.7819 222.153 18.8739 222.183 18.9658C222.212 19.0577 222.239 19.1501 222.263 19.2432L222.265 19.249C222.29 19.3426 222.312 19.4368 222.332 19.5312C222.352 19.6279 222.371 19.7249 222.388 19.8223V19.8232C222.404 19.9177 222.417 20.0125 222.428 20.1074C222.438 20.2024 222.446 20.2981 222.451 20.3936L222.452 20.4004C222.459 20.496 222.463 20.5917 222.464 20.6875C222.465 20.7854 222.465 20.8836 222.462 20.9814C222.459 21.0771 222.454 21.1731 222.446 21.2686C222.438 21.3639 222.428 21.4589 222.416 21.5537C222.402 21.6507 222.387 21.7475 222.369 21.8438L222.368 21.8496C222.353 21.9417 222.334 22.0339 222.312 22.125L222.31 22.1309C222.288 22.2238 222.265 22.3163 222.24 22.4082C222.213 22.5021 222.184 22.5961 222.152 22.6885L222.053 22.9629C222.018 23.0515 221.981 23.1395 221.941 23.2266L221.938 23.2314L221.815 23.4893C221.771 23.5757 221.725 23.661 221.678 23.7451C221.629 23.8292 221.578 23.9125 221.525 23.9941L221.522 23.998C221.473 24.0775 221.421 24.1563 221.365 24.2334C220.461 25.4849 219.1 26.2744 217.567 26.5186C216.305 26.6551 215.11 26.5516 214.008 26.0146H214.007L213.757 25.8818C213.674 25.8349 213.591 25.7862 213.511 25.7354L213.508 25.7334C213.427 25.6829 213.348 25.6303 213.271 25.5762L213.268 25.5742L213.038 25.4053H213.037C212.962 25.3463 212.887 25.2851 212.814 25.2227L212.812 25.2207L212.603 25.0322L212.6 25.0293L212.397 24.8281L212.394 24.8242C212.328 24.7568 212.265 24.6877 212.205 24.6172L212.201 24.6133L212.019 24.3926L212.018 24.3916C211.959 24.3167 211.902 24.24 211.847 24.1621L211.844 24.1572L211.686 23.9238C211.634 23.8427 211.585 23.7602 211.538 23.6768L211.535 23.6719L211.4 23.4229C211.357 23.3369 211.316 23.25 211.276 23.1621C211.237 23.074 211.2 22.9845 211.165 22.8945C211.131 22.8063 211.098 22.7175 211.069 22.6279L211.067 22.624C211.036 22.5304 211.008 22.4358 210.98 22.3408H210.979C210.954 22.2477 210.931 22.1538 210.908 22.0596C210.887 21.9648 210.868 21.8689 210.852 21.7734L210.851 21.7676C210.833 21.6719 210.819 21.5758 210.807 21.4795C210.795 21.3831 210.785 21.2863 210.778 21.1895L210.765 20.8926C210.763 20.7954 210.764 20.6978 210.767 20.6006C210.769 20.5014 210.773 20.4015 210.78 20.3027C210.788 20.2085 210.799 20.1144 210.811 20.0205C210.824 19.9221 210.84 19.8239 210.857 19.7266C210.875 19.629 210.894 19.5312 210.916 19.4346C210.939 19.3404 210.965 19.2472 210.991 19.1543C211.018 19.0612 211.047 18.9686 211.077 18.877C211.11 18.7837 211.144 18.6912 211.181 18.5996C211.217 18.5081 211.256 18.417 211.297 18.3271C211.337 18.2396 211.379 18.1529 211.424 18.0674L211.427 18.0635C212.268 16.4295 213.614 15.5646 215.381 14.9785Z" stroke="black" stroke-width="0.929877"/>
<path d="M213.73 17.2511C214.959 16.9437 217.093 16.9131 218.284 17.4034C218.895 17.6546 219.515 18.1185 219.753 18.758C219.868 19.0676 219.858 19.4074 219.694 19.6982C219.271 20.446 218.496 20.8556 217.706 21.0825C217.837 21.1901 217.964 21.3026 218.088 21.4198C218.692 21.9946 219.912 23.4761 219.923 24.3158L219.676 24.4506C219.347 24.4129 219.072 24.3175 218.764 24.1955C218.756 24.1445 218.747 24.0662 218.729 24.0136C218.472 23.2132 217.368 21.6732 216.633 21.2944C215.982 21.1888 215.299 21.208 214.64 21.1903C214.959 21.7646 214.926 22.8479 214.896 23.5032C214.876 23.9208 214.776 24.1146 214.479 24.3852L214.08 24.3472C213.366 23.3188 214.372 18.844 213.73 17.2511Z" fill="black"/>
<path d="M214.667 18.0695C214.817 18.03 214.957 17.9999 215.112 17.9847C216.022 17.8941 217.763 17.8295 218.474 18.4935C218.655 18.6633 218.773 18.8293 218.749 19.0846C218.712 19.4671 218.396 19.7665 218.103 19.9792L218.038 20.0704C217.159 20.5297 215.592 20.3294 214.604 20.3231C214.654 20.2459 214.671 20.2253 214.706 20.147C214.977 19.5354 214.902 18.6781 214.667 18.0695Z" fill="white"/>
<path d="M125.135 0.162109C125.183 1.31748 123.759 5.38515 123.38 6.70657L119.169 21.2851L148.334 21.2814L156.116 21.271C158.329 21.2659 160.573 21.1693 162.762 21.5529C164.305 21.8232 165.983 22.6716 167.14 23.7296C167.62 24.1687 168.35 24.9066 168.383 25.5907C168.878 25.3482 169.307 24.8747 169.739 24.5261C171.025 23.4887 172.318 22.5562 173.896 22.0165C177.391 20.8215 186.089 21.3065 190.222 21.3091L206.258 21.3181C206.677 22.6434 199.67 44.7868 199.197 48.7628C198.708 52.8684 202.647 58.2082 202.468 59.6069L179.944 59.603C176.543 59.6034 169.521 60.0138 166.574 59.2126C163.434 58.3588 161.41 56.2569 160.645 53.1364C160.48 52.4628 160.47 51.5601 160.115 50.9688C160.102 50.947 160.088 50.9258 160.074 50.9044L146.94 50.916C146.955 50.9743 146.982 51.0609 146.987 51.1252C147.046 51.9217 145.039 59.1022 144.592 59.604C137.521 59.4932 130.43 59.5988 123.357 59.5984L124.193 56.5543C122.56 57.8584 120.733 58.8613 118.678 59.3053C115.755 59.9368 111.162 59.6045 108.069 59.604L88.8362 59.594C87.9117 63.0643 86.7746 66.5142 85.7149 69.9469C85.5297 70.597 85.3561 71.2502 85.1942 71.9066C82.4565 72.7929 79.6035 73.4575 76.8243 74.2123L61.3251 78.4264C61.8997 76.2149 62.6614 74.0236 63.3376 71.8398L67.0911 59.7535C55.6009 59.6213 44.0937 59.7417 32.6014 59.7387L33.4798 56.9392C31.8673 58.0075 30.338 58.86 28.4331 59.2776C25.1992 59.987 19.7998 59.6008 16.381 59.5992C13.302 59.5977 9.81761 59.9741 6.813 59.3392C4.74032 58.9012 2.84285 57.8244 1.68749 56.0094C-2.01121 50.1981 2.86555 40.5221 4.23257 34.4646C5.62839 28.28 3.09487 26.0945 0.0527344 21.2812L97.9203 21.2786C98.4887 18.7008 99.3283 16.1297 100.038 13.5847C100.67 11.3213 101.196 8.91497 102.034 6.72294L125.135 0.162109Z" fill="#FEFEFE"/>
<path d="M133.293 25.8652C134.157 26.5569 134.466 28.3318 134.588 29.4036C134.735 30.6999 134.707 32.243 134.241 33.4658C134.398 33.943 132.212 42.2178 131.822 42.966C131.738 43.1261 131.64 43.2743 131.514 43.4037C131.622 42.9596 131.662 42.3941 131.643 41.9385C131.625 41.5117 131.635 41.3334 131.32 41.0391C131.395 40.9249 131.459 40.8259 131.509 40.6978C132.239 38.7955 134.416 31.0911 133.594 29.4518L133.987 29.3233C134.382 28.4956 133.594 26.7256 133.293 25.8652Z" fill="#35231B"/>
<path d="M148.048 30.1624C148.982 30.162 151.192 29.7542 151.881 30.3021C152.027 30.418 152.114 30.7226 152.126 30.9015C152.173 31.5871 151.583 33.713 151.156 34.205C150.631 35.264 150.503 37.6011 149.795 38.3096C149.712 38.2714 149.615 38.2406 149.548 38.1784C149.949 36.9951 151.327 32.6202 151.035 31.6124L150.993 31.4657L149.03 31.4815C149.123 31.7398 149.135 31.9264 149.078 32.1932C148.685 34.0226 148.112 35.845 147.626 37.655L144.758 48.3241C144.273 50.1281 143.218 54.92 142.563 56.3017C142.502 56.4306 142.435 56.5153 142.344 56.6248L127.23 56.6187C127.794 54.5419 131.443 41.892 131.321 41.0393C131.635 41.3336 131.625 41.5119 131.643 41.9387C131.662 42.3943 131.623 42.9598 131.514 43.4039C131.729 44.0037 130.103 49.9686 129.704 50.8105C129.658 50.9076 129.673 50.8798 129.594 50.9551C129.069 52.3741 128.726 53.8864 128.326 55.346L141.25 55.3483C141.829 54.4513 148.136 30.8262 148.048 30.1624Z" fill="#010101"/>
<path d="M131.604 24.2658L152.32 24.2597C154.995 24.2599 159.595 23.9743 162.086 24.4128C163.212 24.6114 164.341 25.1174 165.162 25.925C166.2 26.9457 166.625 28.4589 166.627 29.8811C166.627 30.5774 166.539 31.2643 166.402 31.9455C165.998 33.9573 162.688 47.3321 162.218 47.9417C157.108 47.94 151.992 47.9887 146.882 47.9348C147.376 47.3762 148.533 43.1123 148.482 42.3285C148.478 42.2712 148.471 42.2138 148.463 42.1568L148.792 42.3338C149.03 43.5409 148.057 45.0982 148.047 46.3838C148.631 46.9092 159.389 46.6441 161.086 46.6406C161.556 46.1385 165.029 32.2128 165.205 30.4262C165.333 29.1113 165.197 27.7417 164.316 26.6948C163.395 25.5998 162.071 25.2474 160.698 25.1342C158.679 24.9675 133.638 25.0039 133.365 25.0927C133.306 25.1117 133.271 25.1724 133.224 25.2123C133.283 25.4205 133.301 25.5787 133.295 25.7956L133.292 25.8652C133.593 26.7255 134.381 28.4956 133.986 29.3232L133.593 29.4517C133.872 28.2102 132.473 25.4862 131.738 24.4187C131.682 24.3367 131.666 24.3262 131.604 24.2658Z" fill="#010101"/>
<path d="M5.31556 24.2644L25.7388 24.2596C28.5822 24.2598 33.0263 23.9768 35.7173 24.4178C36.9693 24.6231 38.1164 25.0128 39.0296 25.9278C40.1018 27.0017 40.476 28.563 40.4557 30.0397C40.4276 32.0895 39.8467 34.1988 39.4352 36.2026C38.2061 42.1869 36.9388 49.5479 32.325 53.954C31.1015 55.1224 29.5953 56.019 27.9344 56.3934C25.5385 56.9333 22.571 56.6284 20.0988 56.63C16.5552 56.6324 12.989 56.7133 9.44761 56.6147C7.61932 56.5636 5.8567 56.3393 4.52023 54.9409C3.40894 53.7777 3.09778 52.1156 3.16237 50.557C3.31751 46.8119 4.9263 42.8247 6.01599 39.2471C6.02275 39.9464 5.9946 40.6663 6.06792 41.3615C6.00268 42.1132 5.62061 43.006 5.40175 43.7363C4.7537 45.8996 4.03582 48.1435 3.90294 50.4117C3.8305 51.6467 4.03953 52.8898 4.89597 53.8324C5.94005 54.9817 7.49843 55.3088 8.98852 55.3616C11.8063 55.4617 14.6693 55.3491 17.4915 55.3583C20.2834 55.3675 24.9132 55.7273 27.5464 55.0659C28.9852 54.7044 30.2444 53.9544 31.3178 52.9385C35.7114 48.7802 36.8932 41.5334 38.0715 35.8678C38.4714 33.9455 39.0534 31.925 39.0946 29.9612C39.1223 28.6343 38.8118 27.3218 37.8454 26.3563C37.0514 25.5631 35.9682 25.3369 34.8901 25.1957C31.9719 24.8141 28.3031 25.0851 25.2839 25.0886L6.93679 25.0849C7.31864 25.732 7.71576 26.3655 7.97302 27.0751C7.93418 27.8876 8.22504 29.8279 7.80937 30.515C7.56411 27.8459 6.68019 26.4685 5.31556 24.2644Z" fill="#010101"/>
<path d="M111.944 7.02499C114.854 5.99923 117.939 5.27939 120.914 4.44434C119.078 11.0597 117.224 17.6928 115.246 24.2662C118.065 24.2595 124.047 23.9328 126.488 24.4637C127.502 24.6843 128.496 25.1183 129.233 25.8648C130.3 26.9455 130.754 28.5218 130.734 30.0123C130.706 32.0309 130.127 34.0885 129.725 36.0601C128.501 42.0622 127.253 49.5383 122.618 53.9453C121.528 54.9809 120.107 55.9176 118.632 56.2744C115.683 56.9872 111.335 56.6287 108.209 56.6285L91.457 56.6239L94.1241 46.6596C94.5993 44.8857 95.0002 43.0222 95.6 41.2904C96.0866 42.83 94.6774 44.897 94.9783 46.3022C94.1439 49.3005 93.313 52.328 92.5622 55.3475C97.7157 55.4356 102.884 55.3638 108.04 55.3662C111.022 55.3678 114.332 55.6697 117.258 55.1838C118.576 54.965 119.607 54.5303 120.672 53.7195C125.514 50.031 126.96 42.5815 128.127 36.9783C128.508 35.1468 128.966 33.2857 129.207 31.4308C129.402 29.9366 129.464 27.932 128.465 26.6898C127.879 25.9621 126.963 25.5047 126.072 25.2894C123.175 24.5892 118.222 25.3983 115.024 25.0664C114.585 25.0208 114.179 24.952 113.892 24.6029C113.883 22.4641 114.808 20.0855 115.409 18.0497C116.59 14.0532 118.011 10.0313 118.944 5.97719L118.877 5.90627L117.918 6.07756C115.059 6.9593 112.141 7.82163 109.236 8.53122C107.811 8.99991 106.326 9.31543 104.912 9.80026C104.635 10.8391 104.336 11.9168 104.225 12.9884C103.876 14.3376 103.497 15.6786 103.09 17.0115C101.849 19.4571 101.486 22.4737 100.641 25.0797L97.2662 25.0895C98.7682 27.937 99.3879 30.5105 98.3914 33.6469C98.3467 33.7876 98.3 33.8459 98.1955 33.9454C97.967 34.277 97.6085 35.0043 97.2611 35.1424C97.3982 34.2168 97.7351 33.2851 97.9166 32.3577C98.5551 29.097 97.2585 26.9802 95.7464 24.2505L100.101 24.2737C101.745 19.3251 102.974 14.1566 104.378 9.13061C106.087 8.69116 107.785 8.18362 109.484 7.70424C110.297 7.4568 111.124 7.24777 111.944 7.02499Z" fill="#010101"/>
<path d="M133.294 25.8651L133.296 25.7955C133.303 25.5786 133.285 25.4204 133.225 25.2122C133.272 25.1723 133.307 25.1117 133.366 25.0927C133.64 25.0039 158.68 24.9674 160.699 25.1341C162.072 25.2474 163.396 25.5998 164.318 26.6947C165.199 27.7416 165.335 29.1113 165.206 30.4261C165.031 32.2127 161.558 46.1385 161.087 46.6405C159.39 46.644 148.633 46.9092 148.048 46.3837C148.058 45.0981 149.032 43.5408 148.793 42.3337L148.464 42.1568C149.058 41.4223 149.435 39.1327 149.548 38.1781C149.615 38.2403 149.712 38.2711 149.795 38.3092C150.503 37.6008 150.631 35.2636 151.156 34.2047C151.583 33.7127 152.173 31.5867 152.126 30.9011C152.114 30.7222 152.027 30.4176 151.881 30.3018C151.192 29.7539 148.982 30.1617 148.047 30.1621C148.136 30.8259 141.829 54.451 141.249 55.348L128.326 55.3456C128.726 53.8861 129.069 52.3737 129.594 50.9548C129.673 50.8795 129.658 50.9072 129.704 50.8101C130.103 49.9683 131.729 44.0034 131.514 43.4036C131.641 43.2742 131.738 43.126 131.822 42.9658C132.212 42.2176 134.398 33.9429 134.242 33.4657C134.707 32.2429 134.736 30.6998 134.588 29.4034C134.466 28.3316 134.157 26.5568 133.294 25.8651Z" fill="#EF6A23"/>
<path d="M149.547 38.178C149.614 38.2402 149.711 38.271 149.794 38.3091C150.502 37.6006 150.63 35.2635 151.155 34.2046C151.404 35.0307 149.946 40.5856 149.502 41.5911C149.699 42.1331 149.206 43.9075 148.928 44.4277C148.863 44.5483 148.797 44.6107 148.698 44.7035C148.651 45.3395 148.49 45.9084 148.047 46.3836C148.057 45.098 149.031 43.5407 148.792 42.3336L148.463 42.1567C149.056 41.4222 149.434 39.1326 149.547 38.178Z" fill="#35231B"/>
<path d="M149.501 41.591C149.523 41.5733 149.545 41.5567 149.565 41.538C150.755 40.4332 151.562 30.7906 153.157 30.4951C153.462 30.6867 153.53 30.8058 153.603 31.1781C153.7 31.6727 153.63 32.2259 153.538 32.7157C153.275 34.1133 150.698 44.9087 150.22 45.5932C150.082 45.7907 149.677 45.797 149.443 45.8171C149.224 45.8359 149.011 45.7922 148.799 45.7438C148.797 45.3927 148.826 45.0351 148.697 44.7034C148.796 44.6107 148.862 44.5483 148.927 44.4276C149.205 43.9074 149.698 42.133 149.501 41.591Z" fill="#FEFEFE"/>
<path d="M133.601 25.6351L151.851 25.6303C154.615 25.6288 158.268 25.3475 160.949 25.7722C161.758 25.9002 162.565 26.1837 163.14 26.7929C163.339 27.0048 163.446 27.2426 163.55 27.5108C163.05 27.0986 162.322 27.0318 161.699 26.9766C158.74 26.7146 155.648 26.8935 152.671 26.8935L134.9 26.8876C136.014 28.0414 136.175 30.566 136.142 32.1281C136.126 32.8726 136.002 33.5859 135.836 34.3099C135.315 36.5907 130.886 53.648 130.257 54.5503C129.809 54.5437 129.444 54.6195 129.067 54.3635C128.694 53.3216 129.68 52.0975 129.594 50.9552C129.673 50.88 129.658 50.9077 129.704 50.8106C130.103 49.9688 131.729 44.0038 131.514 43.404C131.641 43.2746 131.738 43.1265 131.822 42.9663C132.212 42.2181 134.398 33.9433 134.241 33.4661C135.002 32.5852 134.968 30.8028 134.884 29.6779C134.789 28.41 134.529 26.5374 133.601 25.6351Z" fill="#FEFEFE"/>
<path d="M6.93776 25.0846L25.2849 25.0883C28.3041 25.0848 31.9729 24.8138 34.8911 25.1954C35.9692 25.3366 37.0524 25.5629 37.8464 26.356C38.8128 27.3215 39.1233 28.634 39.0956 29.9609C39.0543 31.9247 38.4724 33.9452 38.0724 35.8675C36.8942 41.5331 35.7124 48.7799 31.3187 52.9382C30.2454 53.9541 28.9862 54.7041 27.5474 55.0656C24.9141 55.727 20.2844 55.3672 17.4925 55.358C14.6703 55.3488 11.8073 55.4614 8.98949 55.3613C7.4994 55.3085 5.94102 54.9814 4.89694 53.8321C4.0405 52.8895 3.83147 51.6464 3.90391 50.4114C4.0368 48.1432 4.75467 45.8993 5.40273 43.736C5.62158 43.0057 6.00365 42.1129 6.06889 41.3612C5.99557 40.666 6.02372 39.9461 6.01696 39.2468C6.25523 38.541 6.47161 37.8285 6.6661 37.1093C6.86044 36.3901 7.03253 35.6657 7.18236 34.936C7.33234 34.2062 7.45969 33.4726 7.56443 32.7351C7.66917 31.9974 7.75114 31.2573 7.81034 30.5147C8.22601 29.8276 7.93515 27.8873 7.97399 27.0748C7.71673 26.3652 7.31961 25.7317 6.93776 25.0846Z" fill="#EF6A23"/>
<path d="M7.97266 27.0752C9.02111 29.9354 8.20024 31.991 8.10641 34.851L7.89454 35.8224C7.02414 37.551 6.90719 39.6047 6.06755 41.3616C5.99424 40.6664 6.02239 39.9466 6.01562 39.2472C6.2539 38.5414 6.47028 37.8289 6.66477 37.1098C6.85911 36.3906 7.0312 35.6661 7.18103 34.9365C7.331 34.2067 7.45836 33.473 7.5631 32.7355C7.66783 31.9978 7.7498 31.2577 7.80901 30.5151C8.22468 29.828 7.93382 27.8878 7.97266 27.0752Z" fill="#35231B"/>
<path d="M23.0834 42.5758C23.9999 40.0366 24.5685 37.3143 25.2504 34.7001C25.5233 33.653 25.7391 32.5172 26.1574 31.5181C26.3178 31.1352 26.5624 30.6652 26.9325 30.4546L27.3152 30.584C27.5524 31.2395 27.5338 31.8768 27.4204 32.5585C27.0019 35.0706 26.0114 37.8902 25.3494 40.3942L23.532 47.266C23.1807 48.5937 22.9204 50.0982 22.3221 51.3365C22.1914 51.6069 22.0426 51.8787 21.7474 51.9732C20.7578 52.2903 18.2854 52.3219 17.3871 51.8279C17.2132 51.7323 17.0897 51.584 16.9741 51.4266L16.957 51.1286C17.331 50.8803 17.7674 50.8578 18.2069 50.8591C18.8002 50.8611 19.7068 51.0439 20.2582 50.8541C21.5894 50.3959 21.9569 47.2413 22.1934 45.9954C22.1988 45.9675 22.203 45.9393 22.2078 45.9112C22.5244 44.8036 22.8294 43.6995 23.0834 42.5758Z" fill="#FEFEFE"/>
<path d="M7.7355 25.6315L26.0981 25.6324C28.4767 25.6304 33.024 25.3443 35.1401 25.8207C36.1545 26.0489 36.8531 26.6448 37.5715 27.3647L37.6312 27.4247C34.4084 26.4783 29.0593 26.8931 25.5456 26.8933L9.06237 26.8929C12.8756 36.2057 3.80682 46.3609 5.82014 54.0339C4.79177 53.1404 4.2982 52.2839 4.2011 50.9053C3.89322 46.5368 7.33183 40.2459 7.89413 35.8221L8.106 34.8507C9.04404 31.918 9.21948 28.5305 7.78809 25.7321L7.7355 25.6315Z" fill="#FEFEFE"/>
<path d="M22.0509 30.1484C23.4402 30.1281 24.8186 30.1287 26.2074 30.1857C25.67 33.1643 24.5965 36.1897 23.8299 39.1338C23.5386 40.2525 23.1742 41.4225 23.0828 42.5757C22.8288 43.6994 22.5238 44.8035 22.2072 45.9111C21.5471 47.2172 21.2464 48.8887 20.862 50.3041C19.4912 50.3296 18.1206 50.3257 16.75 50.2926C17.1567 47.8498 17.9732 45.3817 18.6104 42.9846C19.7353 38.7 20.8821 34.4213 22.0509 30.1484Z" fill="#010101"/>
<path d="M23.0919 31.4725L25.1221 31.4424L20.3293 49.4799L18.3535 49.4713C19.884 43.4835 21.8131 37.5125 23.0919 31.4725Z" fill="#FEFEFE"/>
<path d="M171.322 26.9359C172.737 25.9032 174.105 24.9209 175.849 24.5237C178.374 23.9488 182.359 24.2776 185.055 24.2785L202.418 24.2868C202.708 25.5261 196.896 44.4069 196.285 47.9544C195.674 51.5006 198.024 55.7049 197.853 56.6172L177.65 56.6277C174.757 56.6279 170.285 56.929 167.556 56.4291C166.51 56.2375 165.566 55.7666 164.819 55.0051C164.359 54.5364 164.006 53.9922 163.656 53.4398C163.577 52.9684 163.445 52.5002 163.387 52.0274C162.997 48.8866 165.365 39.1486 166.388 35.9116C166.906 34.2666 167.55 32.6728 168.321 31.1299C169.1 29.5727 170.286 28.3136 171.322 26.9359Z" fill="#010101"/>
<path d="M171.889 27.2725C173.107 26.7316 174.039 25.8361 175.365 25.4481C176.245 25.1909 177.236 25.1461 178.15 25.1093C180.161 25.0281 200.067 24.9971 200.366 25.1082C200.458 25.1429 200.539 25.204 200.624 25.2517C200.689 25.401 200.744 25.5651 200.726 25.7296C200.541 27.5081 199.751 29.5261 199.275 31.2758L196.353 42.0915C195.839 44.0049 195.214 45.9499 194.837 47.8926C194.23 51.0021 196.122 54.2956 195.926 55.3513L176.928 55.3644C174.068 55.365 170.008 55.6847 167.288 55.1385C166.45 54.9705 165.876 54.5789 165.281 53.9775C164.966 53.6589 164.651 53.125 164.269 52.9088C164.481 52.233 163.973 51.0405 164.037 50.2515C164.19 48.3477 164.809 46.4736 165.065 44.5779C165.119 44.5155 165.124 44.5122 165.178 44.4359C165.827 43.5168 166.374 39.2787 166.732 37.8499C166.923 37.0904 167.185 36.3553 167.447 35.6184C167.785 34.6664 169.166 31.9426 169.172 31.1087C169.627 29.6572 171.607 28.2302 171.889 27.2725Z" fill="#EF6A23"/>
<path d="M185.775 32.8727C185.795 32.8572 185.815 32.8426 185.834 32.826C186.462 32.2772 186.254 31.1576 186.858 30.5635C187.233 30.5995 187.407 30.6717 187.69 30.9207C188.04 31.486 187.757 32.4044 187.613 33.0128C186.656 37.0399 185.45 41.0399 184.365 45.0358C183.9 46.7476 183.4 49.3751 182.811 50.9215C182.659 51.3199 182.434 51.6907 182.049 51.9034C181.345 52.2931 178.501 52.2767 177.753 52.0079C177.554 51.9361 177.358 51.8011 177.266 51.6036C177.209 51.4831 177.184 51.3452 177.16 51.2152C177.31 50.98 177.322 50.9634 177.591 50.8942C178.754 50.5949 180.348 51.3562 181.31 50.3511C181.525 49.9027 181.58 49.5484 181.419 49.0727C181.339 49.2137 181.263 49.3882 181.149 49.5032C181.247 49.0764 181.21 48.76 181.103 48.3376L180.791 48.1613C181.252 47.5665 184.824 34.1747 185.016 32.7285C185.063 32.7195 185.112 32.7154 185.159 32.7018C185.484 32.6084 185.713 32.1552 185.893 31.8888C185.968 32.3248 185.915 32.4679 185.775 32.8727Z" fill="#FEFEFE"/>
<path d="M185.016 32.7278C185.063 32.7189 185.112 32.7147 185.159 32.7012C185.484 32.6078 185.713 32.1546 185.893 31.8882C185.968 32.3241 185.915 32.4673 185.775 32.872C185.856 33.0909 185.868 33.2321 185.821 33.4599C185.15 36.7741 184.05 40.1219 183.166 43.3923C182.779 44.8228 182.28 47.5102 181.672 48.7426C181.607 48.8737 181.524 48.9728 181.419 49.0721C181.339 49.213 181.263 49.3876 181.149 49.5026C181.247 49.0758 181.21 48.7594 181.103 48.3369L180.791 48.1606C181.252 47.5658 184.824 34.174 185.016 32.7278Z" fill="#35231B"/>
<path d="M182.172 30.1534C183.51 30.1262 184.937 30.0199 186.262 30.2038C186.268 30.2753 186.273 30.3468 186.277 30.4183C186.312 30.9915 186.296 31.4358 185.892 31.8888C185.712 32.1552 185.484 32.6084 185.158 32.7018C185.112 32.7153 185.063 32.7195 185.015 32.7284C184.823 34.1746 181.251 47.5664 180.79 48.1612L181.103 48.3375C181.209 48.76 181.247 49.0764 181.148 49.5032C181.216 49.8189 181.261 49.8392 181.089 50.129C180.109 50.6542 177.912 50.3291 176.771 50.2924C176.786 50.2762 176.801 50.2608 176.814 50.244C177.161 49.8176 182.256 30.8931 182.172 30.1534Z" fill="#010101"/>
<path d="M183.22 31.4478L185.268 31.4554C185.405 31.866 185.156 32.3419 185.015 32.7286C184.823 34.1748 181.252 47.5666 180.791 48.1614C180.874 48.6633 180.692 49.0805 180.413 49.4802L178.414 49.4815C178.472 49.4206 178.496 49.401 178.54 49.3353C178.921 48.7656 182.905 33.8076 183.243 32.0583C183.285 31.842 183.273 31.6618 183.22 31.4478Z" fill="#FEFEFE"/>
<path d="M199.238 25.6591C199.452 25.8967 199.533 26.0353 199.561 26.3556C199.372 26.6541 199.317 26.7449 198.957 26.8481C197.752 27.1933 195.782 26.9449 194.495 26.9412L183.728 26.9209C181.866 26.9183 179.908 26.7924 178.057 26.9685C177.681 27.0011 177.308 27.0582 176.939 27.1398C176.57 27.2213 176.208 27.3265 175.853 27.4555C173.826 28.2149 172.316 29.7935 171.173 31.5819C170.216 33.0775 169.504 34.7198 168.922 36.393C167.86 39.4465 165.137 50.2875 165.759 53.0818C165.844 53.4641 165.869 53.6877 165.728 54.0667C165.718 54.0419 165.71 54.0165 165.7 53.9919C165.347 53.123 164.604 52.579 164.38 51.6059C163.919 49.6013 165.595 45.8214 165.063 44.5779C165.117 44.5155 165.122 44.5122 165.176 44.4358C165.825 43.5168 166.372 39.2787 166.731 37.8499C166.921 37.0904 167.183 36.3552 167.445 35.6184C167.784 34.6664 169.164 31.9426 169.17 31.1086C169.931 30.7176 170.994 28.8876 171.678 28.1435C172.767 26.9574 174.036 26.2688 175.603 25.926C177.985 25.4051 180.769 25.6728 183.209 25.6766C188.537 25.6842 193.919 25.8627 199.238 25.6591Z" fill="#FEFEFE"/>
<path d="M117.918 6.07754L118.877 5.90625L118.944 5.97717C118.012 10.0313 116.59 14.0532 115.41 18.0497C114.808 20.0855 113.883 22.4641 113.893 24.6029C114.179 24.952 114.585 25.0208 115.024 25.0664C118.223 25.3982 123.175 24.5892 126.072 25.2894C126.964 25.5047 127.88 25.9621 128.465 26.6898C129.464 27.932 129.402 29.9366 129.208 31.4308C128.966 33.2857 128.509 35.1467 128.127 36.9783C126.96 42.5815 125.514 50.031 120.672 53.7195C119.607 54.5303 118.576 54.9649 117.258 55.1838C114.332 55.6697 111.022 55.3677 108.04 55.3662C102.885 55.3638 97.7159 55.4356 92.5625 55.3474C93.3133 52.328 94.1442 49.3005 94.9786 46.3022C94.6777 44.897 96.0869 42.83 95.6003 41.2904C95.8529 39.423 96.6441 36.9427 97.2614 35.1424C97.6088 35.0043 97.9673 34.277 98.1958 33.9453C98.3003 33.8458 98.347 33.7876 98.3917 33.6468C99.3882 30.5104 98.7685 27.937 97.2664 25.0895L100.641 25.0797C101.486 22.4737 101.849 19.4571 103.09 17.0115C103.498 15.6786 103.876 14.3376 104.225 12.9884C104.337 11.9168 104.635 10.8391 104.912 9.80024C106.327 9.3154 107.811 8.99989 109.236 8.53119C112.142 7.82161 115.06 6.95928 117.918 6.07754Z" fill="#EF6A23"/>
<path d="M113.912 25.6582C117.292 25.637 120.899 25.3837 124.256 25.6579C125.742 25.7793 126.759 26.1797 127.732 27.311C124.696 26.5045 121.017 26.9043 117.882 26.9209C116.839 26.9263 115.71 27.0121 114.689 26.7797C114.265 26.5323 114.112 26.0841 113.912 25.6582Z" fill="#FEFEFE"/>
<path d="M115.792 33.6459C115.807 33.6186 115.821 33.5915 115.835 33.564C116.301 32.629 116.303 31.5223 116.805 30.6035C117.115 30.5184 117.251 30.5385 117.551 30.6482C117.878 31.0569 117.936 31.3711 117.873 31.8913C117.665 33.628 112.759 51.5166 112.361 51.802C111.647 52.3137 108.897 52.2249 108.032 52.0204C107.747 51.953 107.379 51.7658 107.235 51.5029C107.215 51.4649 107.198 51.4245 107.18 51.3853C107.367 51.1062 107.534 51.0333 107.87 50.9709C108.965 50.7673 110.18 50.9277 111.241 50.5921C111.629 50.0494 111.753 49.0396 111.835 48.3802C111.61 48.9641 111.435 49.8721 110.907 50.2395C110.414 50.4147 109.881 50.3353 109.368 50.3045C109.888 50.1077 110.417 50.2017 110.939 49.9617L110.998 49.7248L110.698 49.4138C110.672 48.5048 113.916 36.9963 114.444 35.4187L114.542 35.4877C115.254 34.9175 115.117 32.923 116.022 32.1217C115.937 32.5501 115.713 33.2284 115.792 33.6459Z" fill="#FEFEFE"/>
<path d="M114.443 35.4186L114.542 35.4875C115.254 34.9174 115.116 32.9228 116.021 32.1216C115.936 32.5499 115.712 33.2283 115.791 33.6457C114.588 38.5443 113.352 43.571 111.834 48.3801C111.609 48.964 111.434 49.8719 110.907 50.2393C110.413 50.4146 109.88 50.3351 109.367 50.3044C109.887 50.1076 110.416 50.2016 110.938 49.9616L110.997 49.7246L110.697 49.4137C110.671 48.5047 113.916 36.9962 114.443 35.4186Z" fill="#35231B"/>
<path d="M112.412 30.1488C113.352 30.1483 114.779 29.8477 115.631 30.0499C116.003 30.1383 116.109 30.2876 116.312 30.5786C116.434 31.1034 116.187 31.6277 116.023 32.1217C115.117 32.923 115.255 34.9175 114.543 35.4877L114.445 35.4187C113.917 36.9963 110.673 48.5048 110.698 49.4138L110.998 49.7248L110.939 49.9617C110.418 50.2018 109.889 50.1077 109.369 50.3045C108.614 50.3615 107.837 50.3095 107.08 50.2958C107.962 46.5519 109.017 42.8362 109.994 39.1148C110.779 36.1307 111.47 33.0857 112.412 30.1488Z" fill="#010101"/>
<path d="M113.461 31.464L115.446 31.4512C115.131 32.7794 114.728 34.0818 114.443 35.4189C113.916 36.9965 110.671 48.505 110.697 49.414C110.055 49.5035 109.376 49.4729 108.727 49.4821L113.461 31.464Z" fill="#FEFEFE"/>
<path d="M105.062 10.2273L113.316 7.86468C114.736 7.46341 116.199 6.96089 117.647 6.68945L117.129 8.3829C113.534 9.42822 109.932 10.4488 106.323 11.4447C105.72 13.6745 102.647 25.919 101.708 26.6881C100.981 27.0073 100.103 26.898 99.324 26.8873C100.003 28.5391 100.523 30.097 100.441 31.9177C100.323 34.545 99.0624 38.0081 98.3733 40.5765C97.1245 45.2314 95.9116 49.9002 94.6078 54.5393L92.9785 54.5402C93.8768 51.8888 94.4919 49.0715 95.1823 46.3566L94.9787 46.3018C94.6779 44.8966 96.087 42.8296 95.6004 41.29C95.8531 39.4227 96.6443 36.9424 97.2615 35.142C97.6089 35.0039 97.9674 34.2767 98.1959 33.945C98.3004 33.8455 98.3471 33.7872 98.3918 33.6465C99.3883 30.5101 98.7687 27.9366 97.2666 25.0891L100.641 25.0793C101.487 22.4734 101.849 19.4568 103.09 17.0112C103.498 15.6783 103.876 14.3372 104.226 12.988C104.543 12.0729 104.834 11.1695 105.062 10.2273Z" fill="#FEFEFE"/>
<path d="M103.091 17.0117C102.95 18.1557 101.186 24.8809 100.56 25.3921C100.033 25.8215 98.6987 25.6413 98.0389 25.6433C99.5648 29.0044 99.3815 31.8552 98.1148 35.2536L98.1969 33.9455C98.3014 33.846 98.3481 33.7878 98.3928 33.647C99.3893 30.5106 98.7697 27.9372 97.2676 25.0897L100.642 25.0799C101.488 22.4739 101.85 19.4573 103.091 17.0117Z" fill="#EF6A23"/>
<path d="M97.2609 35.1428C97.6083 35.0047 97.9668 34.2775 98.1953 33.9458L98.1132 35.2539C97.1359 38.9227 95.9511 42.6456 95.1817 46.3574L94.9781 46.3027C94.6772 44.8975 96.0864 42.8304 95.5998 41.2908C95.8525 39.4235 96.6436 36.9432 97.2609 35.1428Z" fill="#35231B"/>
<path d="M41.9624 24.2627L75.5001 24.2738C78.5798 24.2786 88.0828 23.8681 90.5502 24.6048C91.9028 25.0087 93.0447 25.7955 93.7049 27.0665C94.3403 28.2893 94.4444 29.6858 94.2443 31.031C93.9989 32.681 93.3934 34.323 92.9068 35.9171L90.6299 43.4022L82.7422 69.5238C77.1168 71.1734 71.4078 72.6181 65.7444 74.1337C66.9561 69.8236 68.396 65.5497 69.7218 61.2715L77.6972 35.486C78.1512 34.165 78.522 32.8069 78.9241 31.4687L76.9049 31.4517C74.5601 39.9361 71.924 48.3741 69.406 56.8097L54.0373 56.808C56.4053 48.3187 59.1642 39.8953 61.7269 31.4597L59.4585 31.4521L51.7329 56.8104L36.6211 56.8139C38.1664 50.9954 40.1638 45.217 41.9279 39.4539C42.6052 37.2416 43.4392 34.9948 43.9155 32.7358C44.014 32.2892 44.0825 31.8381 44.1211 31.3825C44.1596 30.9269 44.1677 30.4707 44.1455 30.014C44.0318 27.9299 42.902 26.0711 41.9624 24.2627Z" fill="#010101"/>
<path d="M43.4035 25.0799L74.4784 25.0972L83.2232 25.0856C84.9867 25.0747 86.8542 24.9409 88.5998 25.141C89.7803 25.2761 90.9673 25.6326 91.8349 26.4851C92.683 27.3182 92.9891 28.5214 92.9784 29.6809C92.9562 32.1308 90.1292 40.1719 89.2996 42.9291L81.627 68.376C79.8265 69.0312 77.9046 69.4502 76.0536 69.9527L66.9959 72.4092C67.8576 70.1216 68.186 67.3875 69.4122 65.2812C71.2942 59.5229 73.0005 53.6979 74.7987 47.9121C76.2083 43.377 77.7592 38.8431 78.9969 34.2609C79.1346 32.869 79.7732 31.5439 80.0383 30.1677C78.6426 30.1307 77.2467 30.1242 75.8507 30.148C73.2292 38.5638 70.8305 47.0611 68.3219 55.512L55.1409 55.4948L55.8714 53.6953C56.4486 52.695 59.058 43.4744 59.4957 41.7907C59.7968 39.5553 62.9186 31.4895 62.5948 30.2602C61.3995 29.8941 59.6535 30.1267 58.4126 30.1515C55.6131 38.5081 53.2295 47.067 50.6667 55.5022L37.7207 55.4996C37.9049 55.0695 38.0692 54.541 38.3177 54.1502C39.7692 50.0681 40.9154 45.8309 42.1803 41.6836C43.0513 38.8271 44.9529 33.764 45.129 30.9844C44.6387 28.8615 44.4375 27.0542 43.4035 25.0799Z" fill="#EF6A23"/>
<path d="M59.4938 41.7913C60.1753 40.241 62.4965 31.0271 63.2344 30.5732C63.57 30.6531 63.8609 30.7183 64.0418 31.0389C64.2318 31.3753 64.21 31.8102 64.1286 32.1761C63.5146 34.9353 62.4633 37.7376 61.6394 40.4538C60.2001 45.1983 58.8301 49.9784 57.3131 54.698C56.8113 54.7026 56.2346 54.8117 55.8161 54.5318C55.7652 54.2246 55.8052 53.9985 55.8695 53.6959C56.4467 52.6956 59.0561 43.4749 59.4938 41.7913Z" fill="#FEFEFE"/>
<path d="M78.9951 34.2609L79.0568 34.1237C79.3243 33.5182 79.9789 30.7597 80.3488 30.5934C80.5595 30.4987 80.7886 30.5491 81.0092 30.5788C81.3014 30.8461 81.4066 31.0204 81.4195 31.4363C81.464 32.8616 77.0273 46.2719 76.3284 48.5305L71.8032 63.141C71.0133 65.69 70.2959 68.29 69.413 70.8065L67.5664 71.3058C68.2764 69.3666 68.9714 67.2992 69.4104 65.2813C71.2924 59.523 72.9987 53.6979 74.7969 47.9122C76.2065 43.3771 77.7574 38.8431 78.9951 34.2609Z" fill="#FEFEFE"/>
<path d="M44.1157 25.6345L74.9104 25.6406L83.2079 25.6293C85.029 25.6247 86.9433 25.5093 88.7465 25.7862C89.7421 25.9391 90.4511 26.3677 91.1563 27.0764C91.2993 27.2211 91.4408 27.3672 91.5809 27.5147C90.7306 27.1859 89.9677 27.0223 89.0609 26.9533C87.2745 26.8176 85.449 26.8907 83.6574 26.8918L74.4293 26.8981L45.4467 26.8972C46.1522 28.8663 46.611 30.7157 46.428 32.8242C46.2872 34.445 45.5685 36.1943 45.0922 37.7544L42.4917 46.2413C41.7587 48.6303 40.9239 52.2455 39.9267 54.4225C39.8619 54.5641 39.7967 54.6138 39.6692 54.6959C39.2053 54.7766 38.9114 54.7201 38.467 54.5961C38.3727 54.4338 38.3171 54.3406 38.3164 54.1506C39.7679 50.0685 40.9141 45.8313 42.179 41.684C43.05 38.8275 44.9516 33.7644 45.1277 30.9848C45.2816 29.1198 44.9246 27.3214 44.1157 25.6345Z" fill="#FEFEFE"/>
</g>
<defs>
<clipPath id="clip0_351_24928">
<rect width="223" height="78.5519" fill="white"/>
</clipPath>
</defs>
</svg>
