<svg width="25" height="22" viewBox="0 0 25 22" fill="none" xmlns="http://www.w3.org/2000/svg">
<path d="M12.5 22L10.7615 20.4414C8.74338 18.6231 7.0749 17.0545 5.7561 15.7357C4.43729 14.4169 3.38825 13.2328 2.60896 12.1833C1.82967 11.1339 1.28536 10.17 0.976041 9.29155C0.666723 8.41315 0.511664 7.51397 0.510864 6.594C0.510864 4.71571 1.14029 3.14714 2.39915 1.88828C3.658 0.629428 5.22658 0 7.10487 0C8.14392 0 9.13303 0.2198 10.0722 0.6594C11.0113 1.099 11.8206 1.71844 12.5 2.51771C13.1793 1.71844 13.9886 1.099 14.9278 0.6594C15.8669 0.2198 16.856 0 17.8951 0C19.7734 0 21.3419 0.629428 22.6008 1.88828C23.8596 3.14714 24.4891 4.71571 24.4891 6.594C24.4891 7.51317 24.3344 8.41235 24.0251 9.29155C23.7158 10.1708 23.1711 11.1347 22.391 12.1833C21.6109 13.232 20.5618 14.4161 19.2438 15.7357C17.9258 17.0553 16.2573 18.6239 14.2384 20.4414L12.5 22ZM12.5 18.7629C14.4182 17.0445 15.9968 15.571 17.2357 14.3426C18.4745 13.1141 19.4536 12.045 20.173 11.1355C20.8923 10.2259 21.3919 9.41624 21.6716 8.70648C21.9514 7.99673 22.0912 7.29257 22.0912 6.594C22.0912 5.39509 21.6916 4.396 20.8923 3.59673C20.0931 2.79746 19.094 2.39782 17.8951 2.39782C16.9559 2.39782 16.0867 2.66238 15.2874 3.1915C14.4882 3.72062 13.9387 4.3952 13.6389 5.21526H11.361C11.0613 4.396 10.5118 3.72182 9.7125 3.1927C8.91323 2.66358 8.04402 2.39862 7.10487 2.39782C5.90596 2.39782 4.90687 2.79746 4.10759 3.59673C3.30832 4.396 2.90868 5.39509 2.90868 6.594C2.90868 7.29337 3.04856 7.99793 3.3283 8.70768C3.60805 9.41744 4.10759 10.2267 4.82694 11.1355C5.54629 12.0442 6.5254 13.1133 7.76427 14.3426C9.00314 15.5718 10.5817 17.0453 12.5 18.7629Z" fill="#292929"/>
</svg>
