<svg width="194" height="64" viewBox="0 0 194 64" fill="none" xmlns="http://www.w3.org/2000/svg">
<path d="M49.6635 36.7246C56.8361 36.851 64.032 36.6922 71.2076 36.7004C74.3638 36.704 77.638 36.5381 80.7784 36.8284C80.8055 36.8875 80.8305 36.9466 80.8495 37.009C80.9959 37.4869 80.8412 41.9242 80.6085 42.3707C79.1766 42.4751 77.6625 42.3676 76.223 42.3629L68.5205 42.3726C68.5845 42.4724 68.6385 42.5781 68.6657 42.6945C68.8058 43.2942 68.7892 46.1634 68.498 46.6264C68.5488 46.7002 68.5902 46.7789 68.6132 46.8661C68.7827 47.5147 68.7184 57.3577 68.6245 58.6069C68.6129 58.76 68.5673 58.8809 68.4894 59.0124C66.6064 59.2557 63.3046 59.0715 61.2753 59.0652C61.3514 53.51 61.2196 47.9315 61.2045 42.3737C57.3704 42.2456 53.506 42.3314 49.6683 42.3199C49.6449 40.4597 49.5732 38.5825 49.6635 36.7246Z" fill="#93979F" fill-opacity="0.5"/>
<path d="M90.2813 36.6862C91.3956 36.6086 95.2172 36.6305 96.1792 36.8912C96.2928 36.9366 96.3942 36.9961 96.4847 37.0796C97.6284 38.1345 99.7545 41.9381 100.72 43.4495C102.918 46.8922 105.147 50.3144 107.408 53.7161C107.928 54.4977 110.695 58.3557 110.736 59.0214C109.741 59.1205 108.705 59.0711 107.704 59.075C106.123 59.0935 104.542 59.0887 102.961 59.0605C102.918 58.8505 101.973 57.7951 101.754 57.4834C101.019 56.4359 99.0844 53.0592 98.4537 52.501L98.4025 52.4975C97.2404 52.4225 88.0789 52.3807 87.6242 52.5862C87.4597 52.6605 87.2199 52.9364 87.0754 53.0632C87.0738 53.1169 87.0699 53.1776 87.0518 53.2284C86.852 53.7874 83.6231 58.7781 83.0971 59.0731C80.6444 59.0433 78.1918 59.045 75.7393 59.0782C75.7495 59.0704 75.76 59.0626 75.7699 59.0544C75.921 58.9316 80.929 51.0777 81.4111 50.3499C81.7839 49.787 83.1664 48.0444 83.2204 47.4612C85.2762 47.587 87.3557 47.522 89.4155 47.5172C91.4012 47.5127 93.4058 47.5676 95.3888 47.4759C95.4089 47.397 95.4106 47.3346 95.3949 47.254C95.2499 46.5099 93.9524 44.3577 93.3313 43.9515C92.1999 43.7527 90.9668 43.8262 89.8205 43.8167C88.3895 43.8007 86.9588 43.772 85.5284 43.7306C85.7323 43.587 89.976 37.2844 90.2813 36.6862Z" fill="#93979F" fill-opacity="0.5"/>
<path d="M19.9413 4.9093C21.8682 4.7767 23.8705 4.89815 25.8019 4.92817C26.9822 5.86966 29.2389 9.97746 30.2206 11.4855C33.6355 16.7311 37.3786 22.1064 40.4475 27.5413C37.7815 27.4196 35.1148 27.4011 32.4474 27.4858C31.0024 25.2254 29.5784 22.9519 28.1754 20.665C25.9044 20.6878 23.6334 20.6877 21.3624 20.6648C20.1717 20.6595 18.9492 20.5979 17.7616 20.6811C17.385 20.7076 17.2308 20.7499 16.9839 21.0334C15.6478 23.1004 14.3489 25.2416 13.1653 27.4006C10.6057 27.568 8.03429 27.3026 5.47266 27.5415C7.12849 24.7759 8.85097 22.0678 10.5674 19.3401C11.3107 18.1588 12.0639 16.6155 13.0138 15.608C14.4005 15.5985 24.3857 15.7411 24.8755 15.4006C24.9883 14.9776 24.6257 14.4336 24.4221 14.0819C24.1667 13.6406 23.6111 12.6089 23.1177 12.4832C23.1023 12.4793 23.0868 12.4758 23.0714 12.4717C22.0244 12.1967 20.7354 12.3082 19.6547 12.2793C18.2224 12.2445 16.7915 12.1803 15.3619 12.0869C16.8631 9.67822 18.3896 7.28568 19.9413 4.9093Z" fill="#93979F" fill-opacity="0.5"/>
<path d="M168.105 4.97035C169.001 4.74659 172.808 4.91411 174.04 4.89739C174.048 4.90228 174.057 4.90694 174.066 4.91205C174.512 5.173 174.929 5.91594 175.218 6.34084C177.085 9.07208 178.78 11.9321 180.581 14.707C183.071 18.5434 185.712 22.291 188.026 26.2392C188.26 26.6399 188.655 27.0883 188.764 27.5339C186.66 27.23 182.971 27.4513 180.713 27.4672C180.318 26.7037 176.712 20.9892 176.329 20.683C176.319 20.682 176.31 20.68 176.3 20.68C175.258 20.674 165.675 20.6595 165.484 20.779C165.34 20.8688 165.191 21.0437 165.061 21.1597C165.062 21.1949 165.062 21.2339 165.055 21.2684C164.911 21.9404 161.607 27.1242 161.107 27.4108C158.634 27.608 156.061 27.4298 153.558 27.5729C153.605 27.5394 153.646 27.5052 153.689 27.4648C154.427 26.7522 154.962 25.4517 155.523 24.571C156.265 23.4044 161.129 16.2775 161.142 15.5699C163.051 15.4522 172.494 15.8233 173.298 15.3658C173.299 15.3547 173.302 15.3435 173.302 15.3324C173.34 14.8279 172.378 13.3868 172.026 13.0094C171.706 12.666 171.298 12.4802 170.845 12.3808C169.999 12.1944 169.016 12.2818 168.146 12.2611C166.565 12.2299 164.985 12.1754 163.405 12.0974C163.597 11.9817 163.728 11.8492 163.86 11.6696C164.416 10.9126 167.921 5.56836 168.105 4.97035Z" fill="#93979F" fill-opacity="0.5"/>
<path d="M118.444 36.7809C119.235 36.6381 120.167 36.7195 120.977 36.7184L125.927 36.7172L143.981 36.7335C144.027 36.8099 144.067 36.8869 144.095 36.9722C144.298 37.6054 144.081 41.9139 144.078 42.998C144.07 48.0366 144.218 53.0956 144.071 58.1311C144.061 58.4616 144.065 58.7605 143.912 59.064C141.646 59.1527 139.355 59.0745 137.086 59.1121C137.143 59.0266 137.192 58.9352 137.213 58.8329C137.42 57.8276 137.223 54.9015 137.214 53.6991C137.193 50.4605 137.327 47.1669 137.158 43.9369C137.147 43.7304 137.11 43.5847 136.999 43.4085C137.055 43.3049 137.1 43.1894 137.132 43.0761C137.207 42.8182 137.166 42.577 137.037 42.3472C135.496 42.4745 133.887 42.368 132.338 42.3524C129.789 42.3294 127.239 42.3199 124.689 42.3239C124.83 42.6652 124.795 43.002 124.778 43.3627C124.564 47.8227 124.362 54.0675 120.804 57.2849C118.419 59.4406 115.453 59.1566 112.454 59.0039C112.463 58.9891 112.471 58.9746 112.479 58.9597C112.632 58.6787 112.694 53.7924 112.576 53.4212C113.341 53.4469 114.38 53.5706 115.111 53.3474C115.617 53.1929 116.009 52.5156 116.241 52.0746C116.858 50.9021 117.278 49.4983 117.56 48.2066C117.938 46.4741 118.888 38.204 118.444 36.7809Z" fill="#93979F" fill-opacity="0.5"/>
<path d="M60.7406 4.87574C64.9001 4.84958 69.0594 4.86742 73.2186 4.92925C73.2828 5.03235 73.336 5.14273 73.3582 5.26324C73.4697 5.86695 73.3879 6.63981 73.3872 7.25756L73.3812 11.7396C73.3812 16.6069 73.553 21.7691 73.3382 26.6064C73.3243 26.9196 73.3185 27.1834 73.1379 27.4523C70.9035 27.6249 68.5097 27.4413 66.2376 27.5288C66.2938 27.4455 66.3399 27.3564 66.3617 27.2573C66.5692 26.3135 66.4046 23.2729 66.403 22.1251C66.3977 18.4785 66.5445 14.7518 66.3547 11.1129C66.3441 10.9106 66.3089 10.7699 66.206 10.5941C63.9691 10.5997 61.7322 10.593 59.4953 10.5738C57.7855 10.573 56.0707 10.6223 54.3633 10.5202C54.3508 10.5197 54.3382 10.5175 54.3257 10.5185C53.8766 10.5553 53.9267 11.9265 53.9042 12.2863C53.6583 16.1919 53.3865 21.8939 50.5646 24.8778C48.2254 27.3513 44.9732 27.3711 41.7959 27.467C41.7218 25.6234 41.6884 23.7581 41.9562 21.9279C42.1048 21.9375 42.2536 21.9437 42.4026 21.9464C43.3077 21.9608 44.0194 21.7159 44.6752 21.0754C47.5351 18.2829 47.7052 8.85939 47.745 4.90839L60.7406 4.87574Z" fill="#93979F" fill-opacity="0.5"/>
<path d="M14.8078 36.6887C24.3482 36.9183 33.9065 36.5642 43.4499 36.7723C43.3858 39.1962 43.4344 41.6332 43.422 44.0588C40.9265 44.2238 38.3771 44.1231 35.8768 44.0936C35.8509 43.517 35.7698 42.9351 35.7118 42.3606C31.2629 42.2597 26.801 42.3161 22.3508 42.3263C22.2882 44.6748 22.265 47.0236 22.2809 49.3727C22.2826 50.7182 22.2252 52.0951 22.3493 53.4355C24.5521 53.2186 26.8034 53.3126 29.0157 53.3203C31.2569 53.3147 33.4874 53.2941 35.7265 53.4118C35.7633 52.4737 35.8214 51.5368 35.9007 50.6013C36.8967 50.5091 37.9387 50.5611 38.9397 50.5613C40.456 50.5617 41.9809 50.5346 43.4943 50.6392C43.4904 53.426 43.53 56.22 43.4422 59.0053C42.2983 59.1362 41.1024 59.0697 39.951 59.0655L34.3035 59.0523L14.8176 59.0653C14.7672 55.0393 14.7524 51.013 14.7734 46.9866C14.7731 43.5563 14.7239 40.1178 14.8078 36.6887Z" fill="#93979F" fill-opacity="0.5"/>
<path d="M149.239 36.781C150.026 36.615 151.031 36.7217 151.844 36.7251L156.732 36.7457C156.765 36.7997 156.798 36.8569 156.82 36.9171C157.001 37.419 156.975 44.9244 156.792 45.3365C159.26 45.2672 161.73 45.3221 164.2 45.3041C166.839 45.2849 172.066 44.9867 174.381 45.6065C175.667 45.9505 176.684 46.8337 177.34 47.9822C178.392 49.8262 178.539 52.7161 177.974 54.7459C177.726 55.6371 177.178 56.8519 176.337 57.3255C176.32 57.4242 176.254 57.4912 176.186 57.5606C175.513 58.2525 174.25 58.7787 173.312 58.933C171.001 59.3137 168.259 59.0467 165.897 59.0546C160.322 59.024 154.746 59.0327 149.171 59.081C149.181 59.065 149.192 59.0494 149.201 59.0331C149.506 58.5195 149.296 53.4929 149.294 52.5085L149.307 41.3292C149.308 40.3241 149.465 37.6162 149.239 36.781Z" fill="#93979F" fill-opacity="0.5"/>
<path d="M156.865 50.2249C158.409 50.0748 160.06 50.1843 161.618 50.1809C164.536 50.1745 167.469 50.1148 170.382 50.2855C170.684 50.871 170.578 52.0728 170.533 52.7382C170.511 53.0732 170.498 53.1923 170.247 53.4115C165.912 53.3925 161.029 53.1919 156.757 53.4975C157.112 52.8819 156.901 50.9743 156.865 50.2249Z" fill="white"/>
<path d="M78.3873 4.9698C79.4061 4.71781 84.5156 4.9209 85.9027 4.92885C86.3152 5.57504 86.1501 12.159 86.0292 13.2978C87.2 13.3859 88.4512 13.2726 89.6305 13.2705L97.8526 13.2704C99.5544 13.273 101.405 13.1649 103.062 13.5951C104.486 13.965 105.803 14.77 106.556 16.0675C107.63 17.9178 107.678 21.2783 107.128 23.3313C106.911 24.139 106.424 25.1746 105.675 25.6095C105.651 25.7339 105.601 25.7835 105.514 25.8719C104.842 26.5519 103.811 27.0525 102.878 27.2319C100.483 27.6924 96.7434 27.4606 94.2161 27.4615L78.3818 27.4689C78.3969 27.4434 78.4121 27.418 78.4251 27.3915C78.6817 26.8705 78.4901 23.9183 78.4847 23.0868C78.4722 21.1779 78.6936 5.79519 78.3873 4.9698Z" fill="#93979F" fill-opacity="0.5"/>
<path d="M86.0791 18.3194C87.266 18.2345 88.5305 18.3079 89.7252 18.3009C93.0148 18.2953 96.3042 18.3181 99.5934 18.3694C99.6589 18.4713 99.7181 18.581 99.7381 18.7019C99.852 19.3901 99.9494 21.2805 99.5674 21.7924C99.2942 21.9586 87.3296 21.8456 85.9609 21.9311C86.2794 21.4129 86.1975 18.9444 86.0791 18.3194Z" fill="white"/>
<path d="M128.88 1.94072C129.91 1.68653 134.426 1.85573 135.698 1.93273C135.745 2.01987 135.785 2.10772 135.811 2.20392C135.951 2.72612 135.966 4.45161 135.698 4.89749C141.117 5.00578 147.294 4.29044 151.515 8.43333C153.47 10.3529 154.593 13.4768 154.618 16.2193C154.64 18.8151 153.432 22.0783 151.6 23.9229C147.904 27.6429 140.648 27.4515 135.774 27.4665C135.789 27.493 135.805 27.5196 135.819 27.5471C136.072 28.0561 136.009 29.824 135.834 30.3694L135.574 30.4913C133.957 30.7898 130.556 30.5771 128.789 30.5513C128.826 30.4588 128.856 30.3639 128.879 30.2666C129.022 29.6374 129.012 27.9796 128.672 27.4444C128.183 27.4883 127.692 27.4974 127.2 27.4988C124.305 27.5076 122.167 27.0669 119.351 26.5894C118.211 26.3963 117.102 26.3336 116.013 25.9058C114.91 25.4729 113.888 24.7481 113.051 23.9084C111.043 21.8919 110.235 18.6108 110.244 15.8239C110.254 13.0749 111.073 10.4115 113.065 8.44324C117.112 4.44409 123.54 4.87771 128.771 4.92402C128.801 4.87889 128.829 4.83306 128.851 4.78403C129.056 4.34339 129.051 2.39793 128.88 1.94072Z" fill="#93979F" fill-opacity="0.5"/>
<path d="M136.003 10.5561C137.488 10.2567 142.78 10.7747 144.203 11.3051C145.4 11.7508 146.327 12.4852 146.855 13.6695C147.456 15.0109 147.478 17.1671 146.949 18.5435C146.651 19.3175 146.064 20.0625 145.293 20.4024C145.269 20.4411 145.252 20.4701 145.218 20.5005C143.516 22.0045 137.949 21.9325 135.773 21.8575C136.246 21.1161 135.46 11.8193 136.003 10.5561Z" fill="white"/>
<path d="M126.124 10.5562C126.994 10.5251 127.872 10.5363 128.743 10.5281C128.796 10.6173 128.844 10.7209 128.873 10.8211C129.079 11.5472 129.009 20.1352 128.938 21.3407C128.927 21.5214 128.878 21.677 128.791 21.836C126.889 22.1849 122.687 21.563 120.737 21.1597C120.035 20.8481 119.4 20.5225 118.82 20.0066C117.778 19.0809 117.533 17.8677 117.453 16.5316C117.368 15.1206 117.455 13.7682 118.439 12.6675C120.176 10.7232 123.712 10.6957 126.124 10.5562Z" fill="white"/>
</svg>
