<svg width="21" height="21" viewBox="0 0 21 21" fill="none" xmlns="http://www.w3.org/2000/svg">
<path d="M7.51951 16.638C7.51951 16.5123 7.49535 16.4495 7.44701 16.4495L7.11351 16.609C7.11351 16.5413 7.07485 16.493 6.99751 16.464L6.88151 16.4495C6.80418 16.4495 6.70751 16.4833 6.59151 16.551C6.57218 16.5027 6.54801 16.4543 6.51901 16.406C6.49001 16.3577 6.46585 16.3142 6.44651 16.2755C6.32085 16.0338 6.19518 15.768 6.06951 15.478C5.95351 15.1783 5.84235 14.8932 5.73601 14.6225C5.63935 14.3518 5.56201 14.1392 5.50401 13.9845C5.46535 13.8588 5.42185 13.6703 5.37351 13.419C5.32518 13.1677 5.27685 12.8487 5.22851 12.462C5.33485 12.5297 5.41701 12.5635 5.47501 12.5635C5.54268 12.5635 5.60551 12.462 5.66351 12.259C5.69251 12.2977 5.74568 12.317 5.82301 12.317C5.88101 12.317 5.92451 12.2977 5.95351 12.259L6.18551 11.911L6.44651 11.998H6.46101C6.48035 11.998 6.49968 11.9883 6.51901 11.969C6.53835 11.9497 6.56735 11.9303 6.60601 11.911C6.68335 11.8627 6.74135 11.8385 6.78001 11.8385L6.82351 11.853C7.06518 11.969 7.21985 12.1817 7.28751 12.491C7.46151 13.2257 7.63551 13.593 7.80951 13.593C7.98351 13.593 8.18651 13.4093 8.41851 13.042C8.53451 12.8583 8.65051 12.6457 8.76651 12.404C8.89218 12.1623 9.01785 11.8917 9.14351 11.592C9.16285 11.708 9.18218 11.766 9.20151 11.766C9.24985 11.766 9.33201 11.6452 9.44801 11.4035C9.57368 11.1618 9.77185 10.8283 10.0425 10.403C10.1972 10.142 10.3905 9.84717 10.6225 9.5185C10.8642 9.18983 11.1203 8.8515 11.391 8.5035C11.6617 8.1555 11.9227 7.82683 12.174 7.5175C12.435 7.20817 12.667 6.94233 12.87 6.72C13.073 6.49767 13.2228 6.35267 13.3195 6.285C13.6868 6.03367 13.9768 5.792 14.1895 5.56C14.1798 5.62767 14.1653 5.6905 14.146 5.7485C14.1363 5.79683 14.1315 5.83067 14.1315 5.85C14.1315 5.88867 14.1508 5.908 14.1895 5.908L14.5955 5.705V5.763C14.5955 5.84033 14.6148 5.879 14.6535 5.879C14.6825 5.879 14.7405 5.8355 14.8275 5.7485C14.9145 5.6615 14.9628 5.59867 14.9725 5.56L14.9435 5.763L15.4365 5.473L15.3205 5.734C15.4752 5.62767 15.5863 5.5745 15.654 5.5745C15.6927 5.5745 15.7217 5.59867 15.741 5.647C15.7603 5.68567 15.77 5.72433 15.77 5.763C15.77 5.821 15.7458 5.88867 15.6975 5.966C15.6492 6.04333 15.5863 6.13517 15.509 6.2415C15.451 6.31883 15.3543 6.43483 15.219 6.5895C15.0933 6.7345 14.9 6.952 14.639 7.242C14.378 7.52233 14.03 7.91383 13.595 8.4165C13.479 8.54217 13.3002 8.7645 13.0585 9.0835C12.8168 9.39283 12.5413 9.75533 12.232 10.171C11.9323 10.577 11.6327 10.9878 11.333 11.4035C11.0333 11.8192 10.7675 12.1962 10.5355 12.5345C10.3035 12.8632 10.1392 13.1097 10.0425 13.274L9.14351 14.7965C8.95018 15.1252 8.79068 15.3958 8.66501 15.6085C8.53935 15.8115 8.44268 15.9517 8.37501 16.029C8.23001 16.203 8.07051 16.3577 7.89651 16.493L7.76601 16.4205L7.65001 16.493L7.51951 16.638Z" fill="#FC5521"/>
</svg>
