<svg width="146" height="51" viewBox="0 0 146 51" fill="none" xmlns="http://www.w3.org/2000/svg">
<g clip-path="url(#clip0_214_6203)">
<mask id="mask0_214_6203" style="mask-type:luminance" maskUnits="userSpaceOnUse" x="0" y="0" width="146" height="51">
<path d="M145.5 0.5H0.5V50.5H145.5V0.5Z" fill="white"/>
</mask>
<g mask="url(#mask0_214_6203)">
<path d="M45.0186 27.0701L47.8524 32.3694L48.5155 34.1904L49.9324 38.661V32.5329L52.0124 32.3694L48.5155 29.8043L45.0186 27.0701Z" fill="#FF570F"/>
<path d="M36.3643 36.8401C34.2843 37.0881 33.1225 41.3896 31.5412 40.8935C29.6255 41.1416 27.8799 40.3298 27.2962 38.6385C27.1318 40.2903 25.8793 40.2903 25.6299 40.544V40.6229C25.8793 41.0401 27.9593 41.6997 28.7924 44.0055C30.0393 43.5094 31.3712 42.5172 32.4537 42.6017C32.7401 42.6473 33.0139 42.7515 33.2578 42.9077C33.5017 43.064 33.7104 43.2688 33.8706 43.5094C33.5362 41.9365 34.205 40.9443 34.6187 39.7829C35.2006 38.8133 35.7825 37.8323 36.3643 36.8401Z" fill="#FF570F"/>
<path d="M21.6342 23.8454C21.1355 22.5995 20.6367 21.3592 19.5542 20.5305C18.2225 20.0558 16.7938 19.9145 15.3942 20.1189L17.3949 21.4438L18.2223 23.0956L16.7261 23.0167L15.2355 25.4183L14.4024 25.3337L11.0755 24.9165L11.2398 21.7707C11.9086 21.6918 13.0705 22.1879 13.3199 21.6918L13.7393 17.0577C13.976 17.0247 14.2024 16.94 14.4024 16.8096H14.6687C14.5963 16.9917 14.5806 17.1912 14.6236 17.3822C14.6667 17.5732 14.7666 17.747 14.9103 17.8807C15.0539 18.0145 15.2348 18.1022 15.4293 18.1324C15.6237 18.1626 15.8228 18.1338 16.0006 18.0499C16.6336 17.3667 17.4886 16.9275 18.415 16.8096L17.1682 16.2459L20.223 15.7216C20.138 15.4735 20.138 15.3044 20.053 15.0563C18.1577 15.0059 16.2615 15.1172 14.3854 15.389C13.867 15.5375 13.3385 15.6486 12.8041 15.7216L12.056 20.2711H9.00114L9.08049 20.0231L10.8318 16.6405L9.5679 14.9887C9.90229 13.1621 10.401 12.091 11.2342 12.091C12.1523 11.8429 12.7304 12.091 13.5012 12.1699L13.4162 9.91485L14.4137 9.83028H14.7481L14.4987 13.8048L16.7658 13.5567C18.9308 13.0606 20.1663 13.9683 21.0958 15.2931L21.4699 13.9908C22.6374 14.5546 23.3855 15.8118 23.8843 17.3058C24.1336 13.9908 23.2155 12.0064 19.5542 10.9296L21.2205 9.0241L19.0555 9.19323L17.8086 10.1855L17.1455 11.2622L16.8111 8.86061L22.218 8.29685L21.7192 9.78518L24.383 13.0155C24.6451 12.8079 24.8563 12.5436 25.0007 12.2428C25.145 11.942 25.2187 11.6125 25.2162 11.2791L23.8843 7.80074C24.6803 8.20296 25.301 8.88062 25.6299 9.70625C25.9643 10.535 25.7999 11.5272 25.9643 13.2636L25.6299 13.5116L25.2162 13.9288L25.6299 15.5017L25.7149 15.6652L26.7124 17.2381L27.8799 16.4094L29.2118 17.3227L28.2087 13.8443L30.9574 13.9288C32.091 14.921 33.2868 15.8287 34.4544 16.8266C33.6954 14.5043 32.5097 12.3422 30.9574 10.4504C30.0393 10.2869 29.2118 10.0389 28.2937 9.88666C27.9593 8.23484 27.2962 6.98892 25.6299 6.40825C25.0001 6.13706 24.3212 5.997 23.6349 5.9967C23.0069 6.17239 22.4487 6.53662 22.0366 7.03966C20.2812 6.70984 18.4879 6.62634 16.7091 6.79161H12.9005L13.3142 8.11645L10.8204 8.3645L9.15417 8.86061L9.06916 8.94518L7.98664 9.50894L9.06916 10.5857L9.23918 10.6703L9.06916 10.7549C8.56167 10.8208 8.07239 10.9863 7.62971 11.2417C7.18703 11.4972 6.79977 11.8376 6.4904 12.2432C7.15917 12.6547 8.07166 12.2432 8.49106 13.4835L8.07166 16.3023C8.63842 17.379 7.57291 18.5573 7.23852 19.6848L6.07666 21.2746L6.98914 24.3415L9.06916 26.7375L10.4861 28.3104L10.8204 27.2392L11.8349 29.0602L10.0893 30.1313L12.3564 34.602L14.4364 34.275L18.9308 33.7112L21.0108 28.581L17.0435 32.2229C16.2373 31.8554 15.3464 31.7113 14.4647 31.8057C13.892 31.9069 13.3329 32.0734 12.7984 32.3018C12.4697 31.4731 11.5516 30.4809 11.7159 30.1482C12.2203 29.7367 12.7984 30.5654 13.2972 30.898C13.6667 30.7095 14.0591 30.5693 14.4647 30.4809C15.0862 30.4065 15.7165 30.4919 16.2954 30.7289C17.5422 29.3252 19.8716 27.6677 19.8716 26.5063C19.9319 26.063 19.88 25.6117 19.7207 25.1933C19.5613 24.7749 19.2996 24.4027 18.9591 24.1104C19.8036 24.0089 21.4699 24.3415 21.6342 23.8454ZM9.65292 24.8376L9.08616 23.5917L8.43438 21.923L9.09749 21.8384L9.84562 21.7538L9.65292 24.8376ZM14.8955 28.7839L14.3967 27.6226L13.898 26.5458H14.8955V28.7839Z" fill="#FF570F"/>
<path d="M52.8457 29.7809H54.2569V8.03103C54.2623 7.04061 54.064 6.05956 53.6741 5.14822C53.2843 4.23687 52.7111 3.41449 51.9898 2.73167C51.0543 1.726 49.8486 1.00801 48.5156 0.662663C47.8811 0.568803 47.2413 0.514201 46.6 0.499172H8.15659C7.15344 0.481869 6.15694 0.664239 5.22568 1.03556C4.29441 1.40688 3.44718 1.95966 2.73379 2.6614C2.0204 3.36313 1.45526 4.19966 1.07159 5.12179C0.687915 6.04393 0.49346 7.03306 0.499655 8.03103V42.9842C0.494221 43.9747 0.692538 44.9557 1.08241 45.867C1.47228 46.7784 2.04546 47.6008 2.7667 48.2836C3.46421 49.0099 4.30499 49.585 5.23635 49.9731C6.16772 50.3611 7.16961 50.5537 8.17926 50.5386H46.6C47.1903 50.5277 47.7792 50.4768 48.3626 50.3864V48.7966L46.4356 47.6014L45.4381 43.5424L43.1087 47.5169L42.1055 45.944L41.7768 39.0717L44.6106 43.2943L44.3613 37.916L47.1044 39.8159L46.3506 32.1206L43.4374 27.6499L39.2774 26.5731L41.0287 28.1235L42.61 32.4306L37.033 30.1756L40.3599 32.4306L42.0262 34.9957L38.1949 34.167L39.7762 38.1415L40.0255 42.2795L38.5293 47.5789L34.6186 43.8524L35.3668 48.1539L31.4561 45.2562L32.873 49.0672H32.5386L27.3811 45.1773L26.463 42.2175L25.6298 43.875L24.7967 45.6001L25.6298 47.173L26.6273 49.0785H23.0511L18.976 43.7059L20.4723 41.2253L20.5573 36.4221L18.891 40.1485L16.1422 41.6538L17.0604 38.508L15.3941 35.6892L14.8954 39.0041L14.3966 39.6637L12.9684 41.6538L12.5547 35.1987L10.2253 36.7716L9.06907 29.5554L8.90471 28.0615L7.15909 37.2508L8.49098 36.3431L8.4343 41.8849L9.09741 41.3888L11.0981 39.9005V42.7193L11.9312 42.1555L12.1523 44.4726L14.4193 46.6205L14.5837 46.8686L16.369 44.9518L17.3721 47.0997L17.9389 49.0898H8.15659C7.33784 49.1001 6.52539 48.9462 5.76779 48.6372C5.01018 48.3282 4.32296 47.8705 3.74719 47.2914C2.58986 46.1427 1.93244 44.5879 1.91656 42.9617V8.00847C1.94569 6.39996 2.6021 4.86565 3.74719 3.72953C4.32026 3.14529 5.00647 2.6827 5.76435 2.36972C6.52223 2.05674 7.33604 1.89986 8.15659 1.90858H46.6C47.247 1.90221 47.8918 1.9857 48.5156 2.15663C49.4664 2.46792 50.325 3.00826 51.015 3.72953C52.1655 4.87122 52.8224 6.41466 52.8457 8.03103V26.3251L49.0994 23.3428L51.015 22.3506L48.5156 21.5218L43.5224 19.87L39.8612 17.1358L37.3674 18.2971L31.4561 16.0421L30.2092 16.6058L29.5405 17.6826L25.6298 17.412H25.2161L23.6348 18.1562L25.3804 19.3175C24.3171 19.572 23.3756 20.1857 22.7167 21.0539C23.6348 21.9221 24.8704 22.3506 25.6298 23.5119C25.7873 23.6688 25.9024 23.8627 25.9642 24.0757L25.6298 24.3237L23.0511 26.5788L24.1336 27.244L21.5548 30.3785C21.3054 31.6977 21.5548 32.2784 22.2179 33.6032L23.0511 34.3474L22.8867 36.501L25.6298 39.2352L25.7998 39.3142C25.7134 39.103 25.6562 38.8811 25.6298 38.6545C25.6298 37.9893 25.9642 37.4143 26.7973 37.4932C28.6288 37.6305 30.3456 38.4331 31.6205 39.7482C32.2893 36.7659 33.8875 35.1085 36.0355 34.3643L33.7685 31.5455L29.2741 31.382L32.3743 32.6336L32.6236 33.9584L30.1242 35.5313H26.5706L26.4006 33.9584L28.5656 32.7971V31.7879L27.7325 31.2242L28.9624 28.1235L29.2911 29.4483L31.4561 29.7809L32.0229 28.8676H34.1029L32.771 27.7401L32.0229 27.3229L35.7692 26.0827H29.0417L27.4605 27.3229L25.6298 31.9571L25.5505 32.1262L23.5498 31.5624L25.6298 28.3321L26.7123 26.5957H25.5788L25.6582 26.5111L27.9252 23.5345L28.0045 21.629L29.5858 23.1173V24.5267L34.1652 24.6902L35.2988 23.5627L39.5438 25.4682L37.2144 21.8206L34.5336 21.3583L33.2017 20.2816L35.2817 19.7178L31.3144 19.154L30.1469 20.8904H28.543L29.1097 18.5734L36.931 18.906L36.6816 20.3943L39.3454 22.9594L40.0085 20.7044L41.0117 21.7755L41.3064 25.2483L44.5483 25.8121L46.1862 24.7409L43.8568 23.8445V22.5197L48.2662 24.7747L48.5156 25.5189L48.85 26.5957L51.2644 27.3399L52.8457 29.6569V29.7809ZM24.7967 34.291L25.6298 35.6102L24.7967 36.9182L24.1336 36.2586L24.0486 34.5222L24.7967 34.291Z" fill="#FF570F"/>
<path fill-rule="evenodd" clip-rule="evenodd" d="M143.556 46.238H145.5V50.4098H124.53V46.238H138.019V35.6505H136.97C135.021 35.6505 133.672 35.9493 133.071 36.8457C132.39 37.6056 131.925 38.5317 131.722 39.5292C131.6 39.9656 131.551 40.4187 131.575 40.871V42.2184C131.551 42.6205 131.601 43.0236 131.722 43.4079C131.722 43.7067 131.875 44.0055 131.875 44.3043C131.875 44.6031 131.875 44.7496 132.022 44.9019V45.3472H126.627C126.627 45.2007 126.627 45.2007 126.48 45.0484V44.6031C126.295 44.0749 126.194 43.5215 126.179 42.9625C126.055 42.2175 126.006 41.4622 126.032 40.7075V39.0726C126.179 38.3228 126.332 37.7308 126.48 36.981C127.017 35.4836 127.939 34.1522 129.155 33.1192C130.504 31.9241 132.601 31.3265 135.599 31.3265H143.533V46.238H143.556ZM118.879 28.9418C118.721 29.6676 118.294 30.3077 117.683 30.7345C116.954 31.1455 116.123 31.3411 115.286 31.2983C114.492 31.3257 113.706 31.1303 113.019 30.7345C112.408 30.3064 111.98 29.6672 111.817 28.9418H118.879ZM112.288 31.3265H106.739V50.4098H112.288V42.9569C112.397 42.6926 112.542 42.4441 112.719 42.2184C113.019 41.9196 113.166 41.6208 113.467 41.322C113.932 40.7368 114.439 40.1866 114.986 39.6758C115.5 39.1424 116.051 38.645 116.635 38.1875C116.895 37.8969 117.197 37.6461 117.53 37.4433C117.867 37.2192 118.219 37.0195 118.585 36.8457V50.4098H123.98V31.3265H118.585C118.131 31.4787 117.831 31.7775 117.383 31.9241C116.935 32.2229 116.635 32.5217 116.187 32.8205C115.811 33.0317 115.458 33.2811 115.133 33.5646C114.874 33.8612 114.572 34.1177 114.237 34.3257C113.784 34.7711 113.484 35.0699 113.036 35.5209C112.744 35.7795 112.492 36.0796 112.288 36.4116V31.3378V31.3265ZM99.6037 31.3265C100.342 32.4169 100.994 33.5629 101.553 34.7542C102.125 35.9205 102.636 37.1153 103.084 38.334C103.893 40.4334 104.593 42.5729 105.181 44.744C105.628 46.8356 106.076 48.7693 106.377 50.3816H100.817V49.9363C100.761 49.8769 100.72 49.8064 100.694 49.7295C100.669 49.6527 100.66 49.5713 100.669 49.4909V49.0399C100.613 48.981 100.57 48.9107 100.544 48.8338C100.517 48.757 100.508 48.6753 100.516 48.5945V48.1491H100.369V47.6981C100.377 47.6173 100.368 47.5357 100.341 47.4588C100.315 47.3819 100.272 47.3116 100.216 47.2527H94.9733C95.1207 46.5086 95.268 45.911 95.421 45.1668C95.5684 44.5692 95.8688 43.8251 96.0218 43.2275H99.1673C99.02 42.7821 98.8669 42.3311 98.7196 41.7392C98.5666 41.2882 98.4192 40.8428 98.2662 40.3974C98.1911 39.7699 97.9989 39.1619 97.6994 38.6046C97.4979 38.2809 97.3452 37.9295 97.246 37.5617C96.6461 38.6722 96.1344 39.8277 95.7157 41.0175C95.2623 42.2127 94.9676 43.4023 94.5142 44.5974C94.2138 45.6404 94.0665 46.6833 93.7661 47.5797C93.6517 48.5354 93.4506 49.4789 93.1653 50.3985H87.7811C87.9341 49.3556 88.2345 48.3126 88.5292 47.1174L89.4304 43.5432C90.1136 41.2676 90.9138 39.0284 91.8278 36.8344C92.5775 34.926 93.4796 33.0804 94.5255 31.3152L99.6037 31.3265ZM80.8383 31.3265C83.6721 31.3265 85.7861 32.0706 87.135 33.4124C88.3018 34.64 89.0375 36.2104 89.232 37.8887V38.7851C89.2779 39.7402 89.1287 40.6947 88.7937 41.5909C88.4586 42.4872 87.9445 43.3066 87.2823 43.9998C85.9335 45.4938 83.9838 46.0858 81.439 46.0858H79.9371C79.3364 45.9392 78.8886 45.9392 78.4409 45.7926V41.4686C78.7135 41.6328 79.0193 41.7349 79.3364 41.7673C79.7898 41.7673 80.0902 41.9139 80.3849 41.9139C81.2401 41.8946 82.0728 41.6367 82.7879 41.1698C83.0951 40.8557 83.3334 40.4815 83.4875 40.071C83.6417 39.6605 83.7084 39.2226 83.6834 38.7851C83.6834 38.6328 83.5361 38.4863 83.5361 38.1875C83.5035 37.8703 83.4009 37.5642 83.2357 37.2911C83.1532 37.0314 83.0174 36.7916 82.8369 36.5869C82.6564 36.3821 82.4352 36.2169 82.1872 36.1015C81.44 35.7496 80.6145 35.5943 79.7898 35.6505H77.3924V50.4098H71.8438V31.3265H80.8383ZM69.9565 31.3265V50.4098H64.4079V35.6505H58.4116V50.4098H52.8687V31.3265H69.9565Z" fill="#FF570F"/>
<path d="M64.2884 5.35968C64.3121 6.23787 64.0718 7.10313 63.5983 7.8447C63.1248 8.58628 62.4396 9.17045 61.6304 9.52246C60.8212 9.87447 59.9249 9.9783 59.056 9.82067C58.1872 9.66303 57.3854 9.25111 56.7532 8.6376C56.1211 8.0241 55.6873 7.23692 55.5075 6.37681C55.3277 5.5167 55.41 4.62278 55.7438 3.80945C56.0777 2.99612 56.6479 2.30038 57.3815 1.81126C58.1152 1.32214 58.9788 1.06189 59.862 1.06382C60.4374 1.0526 61.0092 1.15527 61.5443 1.36585C62.0794 1.57643 62.567 1.89073 62.9789 2.29046C63.3908 2.69019 63.7186 3.16738 63.9435 3.69428C64.1683 4.22119 64.2855 4.78729 64.2884 5.35968ZM56.5181 5.35968C56.5035 5.8102 56.581 6.25898 56.7461 6.67877C56.9111 7.09856 57.1602 7.48061 57.4783 7.8017C57.7963 8.1228 58.1766 8.37624 58.5961 8.54665C59.0157 8.71705 59.4656 8.80086 59.9187 8.79299C60.3599 8.79167 60.7963 8.70247 61.2023 8.53067C61.6083 8.35886 61.9756 8.10792 62.2825 7.79265C62.5894 7.47738 62.8297 7.10417 62.9893 6.69502C63.1489 6.28588 63.2244 5.84909 63.2116 5.41042C63.2153 4.53125 62.8678 3.6866 62.2455 3.06229C61.6232 2.43798 60.777 2.08514 59.8932 2.08141C59.0093 2.07767 58.1602 2.42333 57.5326 3.04236C56.9049 3.66138 56.5502 4.50306 56.5465 5.38223L56.5181 5.35968ZM59.1819 7.61472H58.1787V3.31886C58.7266 3.22078 59.2827 3.17547 59.8394 3.18356C60.3609 3.14163 60.8832 3.2534 61.3413 3.5049C61.4776 3.62055 61.5861 3.7652 61.6587 3.92816C61.7313 4.09112 61.7661 4.26823 61.7607 4.44639C61.7423 4.68684 61.6445 4.91449 61.4825 5.09393C61.3206 5.27338 61.1035 5.39455 60.8652 5.43861V5.49498C61.0795 5.58103 61.2661 5.72364 61.405 5.90744C61.5438 6.09123 61.6296 6.30923 61.653 6.53794C61.6964 6.91222 61.8037 7.27638 61.9704 7.61472H60.8935C60.7261 7.28442 60.6095 6.93093 60.5478 6.56613C60.4685 6.09257 60.2078 5.88398 59.6523 5.88398H59.1819V7.61472ZM59.1819 5.17928H59.658C60.2248 5.17928 60.6612 4.99323 60.6612 4.54786C60.6612 4.10249 60.3891 3.88262 59.76 3.88262C59.5698 3.87949 59.3798 3.8965 59.1932 3.93336L59.1819 5.17928Z" fill="#FF570F"/>
</g>
</g>
<defs>
<clipPath id="clip0_214_6203">
<rect width="145" height="50" fill="white" transform="translate(0.5 0.5)"/>
</clipPath>
</defs>
</svg>
