<svg width="22" height="22" viewBox="0 0 22 22" fill="none" xmlns="http://www.w3.org/2000/svg">
<g clip-path="url(#clip0_454_1572)">
<path d="M3.5 0.5H0.5V3.5H3.5V0.5Z" fill="#292929"/>
<path d="M12.5 0.5H9.5V3.5H12.5V0.5Z" fill="#292929"/>
<path d="M21.5 0.5H18.5V3.5H21.5V0.5Z" fill="#292929"/>
<path d="M3.5 9.5H0.5V12.5H3.5V9.5Z" fill="#292929"/>
<path d="M12.5 9.5H9.5V12.5H12.5V9.5Z" fill="#292929"/>
<path d="M21.5 9.5H18.5V12.5H21.5V9.5Z" fill="#292929"/>
<path d="M3.5 18.5H0.5V21.5H3.5V18.5Z" fill="#292929"/>
<path d="M12.5 18.5H9.5V21.5H12.5V18.5Z" fill="#292929"/>
<path d="M21.5 18.5H18.5V21.5H21.5V18.5Z" fill="#292929"/>
</g>
<defs>
<clipPath id="clip0_454_1572">
<rect width="21" height="21" fill="white" transform="translate(0.5 0.5)"/>
</clipPath>
</defs>
</svg>
