<svg width="92" height="33" viewBox="0 0 92 33" fill="none" xmlns="http://www.w3.org/2000/svg">
<g clip-path="url(#clip0_454_847)">
<mask id="mask0_454_847" style="mask-type:luminance" maskUnits="userSpaceOnUse" x="0" y="0" width="92" height="33">
<path d="M91.4375 0.9375H0.8125V32.1875H91.4375V0.9375Z" fill="white"/>
</mask>
<g mask="url(#mask0_454_847)">
<path d="M28.6367 17.5439L30.4078 20.856L30.8223 21.9941L31.7078 24.7883V20.9582L33.0078 20.856L30.8223 19.2528L28.6367 17.5439Z" fill="#FF570F"/>
<path d="M23.2276 23.6499C21.9276 23.8049 21.2014 26.4933 20.2131 26.1833C19.0158 26.3383 17.9248 25.831 17.56 24.7739C17.4572 25.8063 16.6744 25.8063 16.5186 25.9648V26.0142C16.6744 26.2749 17.9744 26.6872 18.4951 28.1283C19.2744 27.8182 20.1069 27.1981 20.7834 27.2509C20.9624 27.2794 21.1336 27.3445 21.286 27.4422C21.4384 27.5398 21.5689 27.6678 21.669 27.8182C21.46 26.8352 21.878 26.215 22.1366 25.4892C22.5002 24.8832 22.8639 24.27 23.2276 23.6499Z" fill="#FF570F"/>
<path d="M14.0213 15.5285C13.7096 14.7498 13.3979 13.9746 12.7213 13.4567C11.889 13.16 10.9961 13.0717 10.1213 13.1994L11.3718 14.0275L11.8889 15.0599L10.9538 15.0105L10.0221 16.5115L9.50144 16.4587L7.42213 16.1979L7.52481 14.2318C7.94281 14.1825 8.669 14.4925 8.82488 14.1825L9.087 11.2862C9.23494 11.2655 9.37644 11.2126 9.50144 11.1311H9.66788C9.62263 11.2449 9.61281 11.3696 9.63969 11.489C9.66663 11.6084 9.72906 11.717 9.81888 11.8005C9.90863 11.8842 10.0217 11.939 10.1433 11.9579C10.2648 11.9767 10.3892 11.9587 10.5003 11.9063C10.8959 11.4793 11.4303 11.2048 12.0093 11.1311L11.2301 10.7788L13.1393 10.4511C13.0862 10.296 13.0862 10.1904 13.0331 10.0353C11.8485 10.0038 10.6634 10.0734 9.49081 10.2432C9.16681 10.336 8.8365 10.4055 8.5025 10.4511L8.03494 13.2945H6.12565L6.17525 13.1395L7.26981 11.0254L6.47988 9.99305C6.68887 8.85142 7.00059 8.18198 7.52131 8.18198C8.09513 8.02692 8.45644 8.18198 8.93819 8.2313L8.88506 6.82189L9.5085 6.76903H9.7175L9.56163 9.25311L10.9786 9.09805C12.3317 8.78798 13.1039 9.3553 13.6848 10.1833L13.9186 9.36936C14.6483 9.72173 15.1159 10.5075 15.4276 11.4412C15.5834 9.36936 15.0096 8.12911 12.7213 7.45611L13.7628 6.26517L12.4096 6.37088L11.6303 6.99102L11.2159 7.66398L11.0069 6.16299L14.3862 5.81064L14.0744 6.74085L15.7393 8.7598C15.9031 8.63005 16.0351 8.46486 16.1254 8.27686C16.2156 8.08886 16.2616 7.88292 16.2601 7.67455L15.4276 5.50057C15.9251 5.75196 16.3131 6.1755 16.5186 6.69152C16.7276 7.20948 16.6249 7.82961 16.7276 8.91486L16.5186 9.06986L16.2601 9.33061L16.5186 10.3137L16.5717 10.4159L17.1952 11.3989L17.9249 10.881L18.7573 11.4518L18.1304 9.2778L19.8483 9.33061C20.5568 9.95073 21.3042 10.518 22.0339 11.1417C21.5596 9.6903 20.8185 8.33898 19.8483 7.15662C19.2745 7.05444 18.7573 6.8994 18.1835 6.80427C17.9745 5.77188 17.5601 4.99318 16.5186 4.63027C16.125 4.46077 15.7007 4.37323 15.2717 4.37305C14.8792 4.48285 14.5304 4.7105 14.2728 5.0249C13.1757 4.81876 12.0549 4.76657 10.9431 4.86987H8.56275L8.82131 5.69789L7.26269 5.85292L6.22129 6.16299L6.16816 6.21585L5.49159 6.5682L6.16816 7.24117L6.27443 7.29405L6.16816 7.34692C5.85098 7.38811 5.54518 7.49155 5.26851 7.65117C4.99183 7.81086 4.7498 8.02361 4.55644 8.27711C4.97442 8.5343 5.54473 8.27711 5.80685 9.0523L5.54473 10.814C5.89895 11.487 5.23301 12.2234 5.02401 12.9281L4.29785 13.9217L4.86815 15.8385L6.16816 17.336L7.05373 18.3191L7.26269 17.6496L7.89675 18.7877L6.80576 19.4572L8.22269 22.2514L9.52269 22.047L12.3317 21.6946L13.6317 18.4882L11.1521 20.7644C10.6483 20.5347 10.0914 20.4447 9.54038 20.5037C9.18244 20.5669 8.833 20.671 8.49894 20.8137C8.2935 20.2958 7.71969 19.6757 7.82238 19.4677C8.13763 19.2105 8.49894 19.7285 8.81069 19.9364C9.04163 19.8185 9.28688 19.7309 9.54038 19.6757C9.92881 19.6292 10.3228 19.6825 10.6846 19.8307C11.4638 18.9534 12.9197 17.9174 12.9197 17.1915C12.9574 16.9145 12.9249 16.6324 12.8254 16.3709C12.7257 16.1094 12.5622 15.8768 12.3494 15.6941C12.8772 15.6307 13.9186 15.8385 14.0213 15.5285ZM6.53301 16.1486L6.17879 15.3699L5.77143 14.327L6.18587 14.2741L6.65345 14.2212L6.53301 16.1486ZM9.80963 18.615L9.49788 17.8892L9.18619 17.2162H9.80963V18.615Z" fill="#FF570F"/>
<path d="M33.5289 19.2378H34.4109V5.64415C34.4142 5.02514 34.2903 4.41198 34.0466 3.84239C33.803 3.2728 33.4447 2.75881 32.9939 2.33205C32.4092 1.70351 31.6557 1.25476 30.8226 1.03892C30.426 0.980258 30.0261 0.946131 29.6253 0.936739H5.59817C4.97121 0.925924 4.34839 1.03991 3.76636 1.27198C3.18431 1.50406 2.65479 1.84954 2.20892 2.28813C1.76306 2.72671 1.40984 3.24954 1.17005 3.82587C0.930252 4.40221 0.808718 5.02042 0.81259 5.64415V27.4899C0.809193 28.1089 0.933141 28.7221 1.17681 29.2916C1.42048 29.8613 1.77872 30.3753 2.22949 30.802C2.66544 31.2559 3.19092 31.6154 3.77302 31.8579C4.35513 32.1004 4.98131 32.2208 5.61234 32.2114H29.6253C29.9942 32.2046 30.3623 32.1728 30.7269 32.1163V31.1226L29.5226 30.3756L28.8991 27.8388L27.4432 30.3228L26.8162 29.3398L26.6108 25.0446L28.3819 27.6837L28.2261 24.3223L29.9406 25.5097L29.4694 20.7001L27.6487 17.9059L25.0487 17.2329L26.1432 18.2019L27.1316 20.8939L23.6459 19.4845L25.7252 20.8939L26.7667 22.4971L24.3721 21.9791L25.3604 24.4632L25.5162 27.0494L24.5811 30.3616L22.1369 28.0325L22.6046 30.7209L20.1604 28.9099L21.0459 31.2918H20.8369L17.6135 28.8606L17.0397 27.0107L16.5189 28.0466L15.9982 29.1248L16.5189 30.1079L17.1424 31.2988H14.9072L12.3603 27.9409L13.2955 26.3906L13.3486 23.3886L12.3072 25.7176L10.5892 26.6584L11.1631 24.6923L10.1216 22.9305L9.80993 25.0023L9.49818 25.4146L8.60556 26.6584L8.34699 22.6239L6.8911 23.607L6.16847 19.0969L6.06575 18.1632L4.97474 23.9065L5.80717 23.3392L5.77174 26.8028L6.18619 26.4928L7.43662 25.5626V27.3243L7.9573 26.9719L8.09549 28.4201L9.51237 29.7626L9.61512 29.9176L10.7309 28.7196L11.3579 30.0621L11.7121 31.3059H5.59817C5.08646 31.3123 4.57867 31.2161 4.10517 31.023C3.63167 30.8299 3.20216 30.5438 2.8423 30.1819C2.11897 29.4639 1.70808 28.4922 1.69816 27.4758V5.63005C1.71636 4.62473 2.12662 3.66579 2.8423 2.95571C3.20047 2.59056 3.62935 2.30144 4.10302 2.10583C4.5767 1.91022 5.08533 1.81217 5.59817 1.81762H29.6253C30.0297 1.81364 30.4327 1.86582 30.8226 1.97265C31.4168 2.16721 31.9534 2.50492 32.3847 2.95571C33.1037 3.66927 33.5143 4.63392 33.5289 5.64415V17.0779L31.1874 15.214L32.3847 14.5939L30.8226 14.0759L27.7018 13.0435L25.4136 11.3346L23.8549 12.0604L20.1604 10.6511L19.3811 11.0034L18.9631 11.6764L16.5189 11.5073H16.2604L15.2721 11.9724L16.3631 12.6982C15.6985 12.8573 15.1101 13.2408 14.6982 13.7834C15.2721 14.3261 16.0443 14.5939 16.5189 15.3197C16.6174 15.4178 16.6893 15.5389 16.7279 15.6721L16.5189 15.8271L14.9072 17.2365L15.5838 17.6523L13.9721 19.6113C13.8162 20.4358 13.9721 20.7988 14.3865 21.6268L14.9072 22.0919L14.8045 23.4379L16.5189 25.1468L16.6252 25.1961C16.5712 25.0641 16.5354 24.9254 16.5189 24.7838C16.5189 24.3681 16.7279 24.0087 17.2486 24.058C18.3933 24.1438 19.4663 24.6454 20.2631 25.4674C20.6811 23.6034 21.68 22.5676 23.0225 22.1024L21.6056 20.3407L18.7966 20.2385L20.7342 21.0208L20.8901 21.8488L19.3279 22.8318H17.1069L17.0007 21.8488L18.3538 21.1229V20.4922L17.8331 20.1399L18.6018 18.2019L18.8072 19.0299L20.1604 19.2378L20.5146 18.667H21.8146L20.9822 17.9623L20.5146 17.7016L22.8561 16.9264H18.6514L17.6631 17.7016L16.5189 20.5979L16.4694 20.7036L15.2189 20.3513L16.5189 18.3323L17.1955 17.2471H16.4871L16.5367 17.1942L17.9536 15.3338L18.0031 14.1429L18.9914 15.0731V15.9539L21.8536 16.0561L22.5621 15.3514L25.2152 16.5424L23.7593 14.2626L22.0838 13.9737L21.2514 13.3008L22.5514 12.9484L20.0718 12.596L19.3421 13.6813H18.3397L18.6939 12.2331L23.5822 12.441L23.4263 13.3712L25.0912 14.9744L25.5056 13.565L26.1326 14.2344L26.3168 16.4049L28.343 16.7573L29.3667 16.0878L27.9108 15.5276V14.6996L30.6667 16.1089L30.8226 16.5741L31.0316 17.2471L32.5406 17.7122L33.5289 19.1603V19.2378ZM15.9982 22.0566L16.5189 22.8811L15.9982 23.6986L15.5838 23.2864L15.5307 22.2011L15.9982 22.0566Z" fill="#FF570F"/>
<path fill-rule="evenodd" clip-rule="evenodd" d="M90.2225 29.5235H91.4375V32.1309H78.3313V29.5235H86.7619V22.9063H86.1063C84.8882 22.9063 84.045 23.0931 83.6694 23.6533C83.2438 24.1283 82.9532 24.7071 82.8263 25.3305C82.75 25.6033 82.7194 25.8864 82.7344 26.1691V27.0113C82.7194 27.2626 82.7507 27.5145 82.8263 27.7547C82.8263 27.9414 82.9219 28.1282 82.9219 28.3149C82.9219 28.5017 82.9219 28.5933 83.0138 28.6884V28.9668H79.6419C79.6419 28.8752 79.6419 28.8752 79.55 28.78V28.5017C79.4344 28.1716 79.3713 27.8257 79.3619 27.4763C79.2844 27.0107 79.2538 26.5386 79.27 26.0669V25.0451C79.3619 24.5765 79.4575 24.2065 79.55 23.7379C79.8857 22.802 80.4619 21.9699 81.2219 21.3243C82.065 20.5773 83.3757 20.2038 85.2494 20.2038H90.2082V29.5235H90.2225ZM74.7994 18.7134C74.7007 19.167 74.4338 19.5671 74.0519 19.8338C73.5963 20.0907 73.0769 20.2129 72.5538 20.1862C72.0575 20.2033 71.5663 20.0812 71.1369 19.8338C70.755 19.5663 70.4875 19.1668 70.3857 18.7134H74.7994ZM70.68 20.2038H67.2119V32.1309H70.68V27.4728C70.7482 27.3076 70.8388 27.1523 70.9494 27.0113C71.1369 26.8245 71.2288 26.6378 71.4169 26.451C71.7075 26.0853 72.0244 25.7414 72.3663 25.4221C72.6875 25.0888 73.0319 24.7779 73.3969 24.4919C73.5594 24.3103 73.7482 24.1536 73.9563 24.0268C74.1669 23.8868 74.3869 23.7619 74.6157 23.6533V32.1309H77.9875V20.2038H74.6157C74.3319 20.2989 74.1444 20.4857 73.8644 20.5773C73.5844 20.7641 73.3969 20.9508 73.1169 21.1376C72.8819 21.2696 72.6613 21.4254 72.4582 21.6026C72.2963 21.788 72.1075 21.9483 71.8982 22.0783C71.615 22.3567 71.4275 22.5434 71.1475 22.8253C70.965 22.9869 70.8075 23.1745 70.68 23.382V20.2109V20.2038ZM62.7523 20.2038C63.2139 20.8853 63.6213 21.6016 63.9707 22.3461C64.3282 23.0751 64.6475 23.8218 64.9275 24.5835C65.4332 25.8956 65.8707 27.2328 66.2382 28.5898C66.5175 29.897 66.7975 31.1056 66.9857 32.1133H63.5107V31.8349C63.4757 31.7978 63.45 31.7538 63.4338 31.7057C63.4182 31.6577 63.4125 31.6068 63.4182 31.5566V31.2747C63.3832 31.2379 63.3563 31.1939 63.34 31.1459C63.3232 31.0979 63.3175 31.0468 63.3225 30.9963V30.7179H63.2306V30.4361C63.2357 30.3856 63.2298 30.3346 63.2133 30.2865C63.1968 30.2384 63.1701 30.1945 63.1349 30.1577H59.8583C59.9505 29.6926 60.0425 29.3191 60.1382 28.854C60.2303 28.4805 60.418 28.0154 60.5137 27.6419H62.4796C62.3875 27.3636 62.2918 27.0817 62.1998 26.7118C62.1042 26.4299 62.012 26.1515 61.9164 25.8731C61.8695 25.4809 61.7493 25.1009 61.5622 24.7526C61.4362 24.5503 61.3408 24.3307 61.2788 24.1008C60.9038 24.7949 60.584 25.5171 60.3223 26.2607C60.039 27.0077 59.8548 27.7512 59.5714 28.4981C59.3837 29.15 59.2916 29.8018 59.1038 30.3621C59.0323 30.9594 58.9067 31.5491 58.7283 32.1238H55.3632C55.4588 31.472 55.6466 30.8201 55.8308 30.0731L56.394 27.8393C56.821 26.417 57.3212 25.0175 57.8924 23.6463C58.361 22.4535 58.9248 21.3 59.5785 20.1968L62.7523 20.2038ZM51.024 20.2038C52.7951 20.2038 54.1163 20.6689 54.9594 21.5075C55.6887 22.2748 56.1485 23.2563 56.27 24.3052V24.8654C56.2987 25.4624 56.2055 26.0589 55.9961 26.6191C55.7867 27.1793 55.4653 27.6914 55.0515 28.1246C54.2085 29.0584 52.9899 29.4284 51.3994 29.4284H50.4607C50.0853 29.3368 49.8054 29.3368 49.5256 29.2451V26.5426C49.696 26.6453 49.8871 26.7091 50.0853 26.7293C50.3687 26.7293 50.5564 26.8209 50.7406 26.8209C51.2751 26.8089 51.7955 26.6477 52.2425 26.3559C52.4345 26.1596 52.5834 25.9257 52.6797 25.6691C52.7761 25.4126 52.8178 25.1389 52.8022 24.8654C52.8022 24.7703 52.7101 24.6787 52.7101 24.4919C52.6897 24.2937 52.6256 24.1024 52.5223 23.9317C52.4708 23.7694 52.3859 23.6195 52.2731 23.4916C52.1603 23.3636 52.022 23.2603 51.867 23.1882C51.4 22.9683 50.8841 22.8712 50.3687 22.9063H48.8703V32.1309H45.4024V20.2038H51.024ZM44.2228 20.2038V32.1309H40.755V22.9063H37.0073V32.1309H33.543V20.2038H44.2228Z" fill="#FF570F"/>
<path d="M40.6809 3.9745C40.6957 4.52336 40.5455 5.06415 40.2496 5.52763C39.9537 5.99112 39.5254 6.35623 39.0197 6.57623C38.5139 6.79624 37.9537 6.86113 37.4107 6.76261C36.8677 6.66409 36.3665 6.40664 35.9714 6.0232C35.5764 5.63976 35.3052 5.14777 35.1929 4.6102C35.0805 4.07263 35.1319 3.51393 35.3405 3.0056C35.5492 2.49727 35.9056 2.06243 36.3641 1.75673C36.8227 1.45103 37.3624 1.28838 37.9144 1.28958C38.274 1.28257 38.6314 1.34674 38.9659 1.47835C39.3003 1.60996 39.605 1.8064 39.8625 2.05623C40.1199 2.30606 40.3248 2.60431 40.4654 2.93362C40.6059 3.26294 40.6791 3.61675 40.6809 3.9745ZM35.8245 3.9745C35.8154 4.25607 35.8638 4.53656 35.967 4.79893C36.0701 5.0613 36.2258 5.30008 36.4246 5.50076C36.6234 5.70145 36.861 5.85985 37.1232 5.96635C37.3855 6.07285 37.6667 6.12523 37.9499 6.12031C38.2256 6.11949 38.4984 6.06374 38.7521 5.95636C39.0059 5.84898 39.2354 5.69215 39.4272 5.4951C39.619 5.29806 39.7692 5.0648 39.869 4.80908C39.9687 4.55337 40.0159 4.28038 40.0079 4.00621C40.0102 3.45673 39.793 2.92882 39.4041 2.53863C39.0152 2.14843 38.4863 1.92791 37.9339 1.92558C37.3815 1.92324 36.8508 2.13928 36.4585 2.52617C36.0662 2.91306 35.8445 3.43911 35.8422 3.98859L35.8245 3.9745ZM37.4894 5.38389H36.8624V2.69898C37.2048 2.63768 37.5524 2.60936 37.9003 2.61442C38.2262 2.58821 38.5527 2.65807 38.839 2.81526C38.9242 2.88754 38.992 2.97795 39.0374 3.0798C39.0827 3.18165 39.1045 3.29234 39.1011 3.40369C39.0896 3.55397 39.0285 3.69625 38.9272 3.8084C38.826 3.92056 38.6904 3.99629 38.5414 4.02383V4.05906C38.6754 4.11284 38.792 4.20197 38.8788 4.31685C38.9655 4.43171 39.0192 4.56796 39.0338 4.71091C39.0609 4.94483 39.128 5.17243 39.2322 5.38389H38.5591C38.4545 5.17746 38.3816 4.95653 38.343 4.72853C38.2935 4.43255 38.1305 4.30218 37.7834 4.30218H37.4894V5.38389ZM37.4894 3.86174H37.7869C38.1412 3.86174 38.4139 3.74546 38.4139 3.46711C38.4139 3.18875 38.2439 3.05133 37.8507 3.05133C37.7318 3.04938 37.613 3.06001 37.4964 3.08305L37.4894 3.86174Z" fill="#FF570F"/>
</g>
</g>
<defs>
<clipPath id="clip0_454_847">
<rect width="90.625" height="31.25" fill="white" transform="translate(0.8125 0.9375)"/>
</clipPath>
</defs>
</svg>
